M48
; DRILL file {KiCad 5.99.0+really5.1.10+dfsg1-1} date Fri Apr  8 20:51:52 2022
; FORMAT={-:-/ absolute / inch / decimal}
; #@! TF.CreationDate,2022-04-08T20:51:52+02:00
; #@! TF.GenerationSoftware,Kicad,Pcbnew,5.99.0+really5.1.10+dfsg1-1
; #@! TF.FileFunction,Plated,1,2,PTH
FMAT,2
INCH
T1C0.0276
T2C0.0300
T3C0.0315
T4C0.0354
T5C0.0394
T6C0.0433
T7C0.0598
%
G90
G05
T1
X2.875Y-2.1
X2.95Y-2.775
X2.95Y-2.875
X3.075Y-2.1
X5.625Y-2.325
X5.825Y-2.325
X6.3Y-2.325
X6.5Y-2.325
T2
X5.625Y-2.625
X5.725Y-2.625
X5.825Y-2.625
X6.3Y-2.625
X6.4Y-2.625
X6.5Y-2.625
X7.275Y-2.175
X7.275Y-2.275
X7.275Y-2.375
X7.275Y-2.475
T3
X2.35Y-2.0531
X2.35Y-2.25
X2.8781Y-2.5
X3.075Y-2.5
X3.45Y-2.6
X3.45Y-2.9
X3.55Y-2.6
X3.55Y-2.9
X3.65Y-2.6
X3.65Y-2.9
X3.75Y-2.6
X3.75Y-2.9
X3.85Y-2.6
X3.85Y-2.9
X3.95Y-2.6
X3.95Y-2.9
X4.05Y-2.6
X4.05Y-2.9
X4.075Y-2.2
X4.075Y-2.2984
X4.15Y-2.6
X4.15Y-2.9
X4.25Y-2.6
X4.25Y-2.9
X4.35Y-2.6
X4.35Y-2.9
X4.45Y-2.6
X4.45Y-2.9
X4.55Y-2.6
X4.55Y-2.9
X4.575Y-2.1016
X4.575Y-2.2
X4.65Y-2.6
X4.65Y-2.9
X4.75Y-2.6
X4.75Y-2.9
T4
X2.725Y-2.775
X2.725Y-2.875
T5
X1.8Y-2.1
X1.8Y-2.4
X2.0Y-2.1
X2.0Y-2.4
X4.25Y-2.35
X4.4469Y-2.35
T6
X2.25Y-1.775
X2.25Y-2.625
X2.35Y-1.775
X2.35Y-2.625
X2.45Y-1.775
X2.45Y-2.625
X2.825Y-1.7
X2.825Y-1.8772
X3.0809Y-1.7
X3.0809Y-1.8772
T7
X1.725Y-1.775
X1.925Y-1.775
X3.45Y-1.775
X3.65Y-1.775
X3.925Y-1.775
X4.125Y-1.775
X4.4Y-1.775
X4.6Y-1.775
X4.875Y-1.775
X5.075Y-1.775
X5.45Y-1.775
X5.625Y-2.975
X5.65Y-1.775
X5.825Y-2.975
X5.925Y-1.775
X6.125Y-1.775
X6.303Y-2.977
X6.4Y-1.775
X6.503Y-2.977
X6.6Y-1.775
X7.05Y-1.775
X7.25Y-1.775
X7.45Y-1.775
T0
M30
