%TF.GenerationSoftware,KiCad,Pcbnew,5.99.0+really5.1.10+dfsg1-1*%
%TF.CreationDate,2022-04-08T20:52:09+02:00*%
%TF.ProjectId,board,626f6172-642e-46b6-9963-61645f706362,rev?*%
%TF.SameCoordinates,Original*%
%TF.FileFunction,Legend,Top*%
%TF.FilePolarity,Positive*%
%FSLAX46Y46*%
G04 Gerber Fmt 4.6, Leading zero omitted, Abs format (unit mm)*
G04 Created by KiCad (PCBNEW 5.99.0+really5.1.10+dfsg1-1) date 2022-04-08 20:52:09*
%MOMM*%
%LPD*%
G01*
G04 APERTURE LIST*
%ADD10C,0.120000*%
%ADD11C,0.150000*%
G04 APERTURE END LIST*
D10*
%TO.C,AT_OPENSW_Q1*%
X158750000Y-67945000D02*
X158750000Y-65405000D01*
X158750000Y-65405000D02*
X166370000Y-65405000D01*
X166370000Y-65405000D02*
X166370000Y-67945000D01*
X166370000Y-67945000D02*
X158750000Y-67945000D01*
%TO.C,AT_CLOSESW_Q1*%
X141605000Y-67945000D02*
X141605000Y-65405000D01*
X141605000Y-65405000D02*
X149225000Y-65405000D01*
X149225000Y-65405000D02*
X149225000Y-67945000D01*
X149225000Y-67945000D02*
X141605000Y-67945000D01*
%TO.C,AT_XTAL_C2*%
X105230000Y-54575225D02*
X104730000Y-54575225D01*
X104980000Y-54325225D02*
X104980000Y-54825225D01*
X103789000Y-59731000D02*
X103221000Y-59731000D01*
X104023000Y-59691000D02*
X102987000Y-59691000D01*
X104182000Y-59651000D02*
X102828000Y-59651000D01*
X104310000Y-59611000D02*
X102700000Y-59611000D01*
X104420000Y-59571000D02*
X102590000Y-59571000D01*
X104516000Y-59531000D02*
X102494000Y-59531000D01*
X104603000Y-59491000D02*
X102407000Y-59491000D01*
X104683000Y-59451000D02*
X102327000Y-59451000D01*
X102465000Y-59411000D02*
X102254000Y-59411000D01*
X104756000Y-59411000D02*
X104545000Y-59411000D01*
X102465000Y-59371000D02*
X102186000Y-59371000D01*
X104824000Y-59371000D02*
X104545000Y-59371000D01*
X102465000Y-59331000D02*
X102122000Y-59331000D01*
X104888000Y-59331000D02*
X104545000Y-59331000D01*
X102465000Y-59291000D02*
X102062000Y-59291000D01*
X104948000Y-59291000D02*
X104545000Y-59291000D01*
X102465000Y-59251000D02*
X102005000Y-59251000D01*
X105005000Y-59251000D02*
X104545000Y-59251000D01*
X102465000Y-59211000D02*
X101951000Y-59211000D01*
X105059000Y-59211000D02*
X104545000Y-59211000D01*
X102465000Y-59171000D02*
X101900000Y-59171000D01*
X105110000Y-59171000D02*
X104545000Y-59171000D01*
X102465000Y-59131000D02*
X101852000Y-59131000D01*
X105158000Y-59131000D02*
X104545000Y-59131000D01*
X102465000Y-59091000D02*
X101806000Y-59091000D01*
X105204000Y-59091000D02*
X104545000Y-59091000D01*
X102465000Y-59051000D02*
X101762000Y-59051000D01*
X105248000Y-59051000D02*
X104545000Y-59051000D01*
X102465000Y-59011000D02*
X101720000Y-59011000D01*
X105290000Y-59011000D02*
X104545000Y-59011000D01*
X102465000Y-58971000D02*
X101679000Y-58971000D01*
X105331000Y-58971000D02*
X104545000Y-58971000D01*
X102465000Y-58931000D02*
X101641000Y-58931000D01*
X105369000Y-58931000D02*
X104545000Y-58931000D01*
X102465000Y-58891000D02*
X101604000Y-58891000D01*
X105406000Y-58891000D02*
X104545000Y-58891000D01*
X102465000Y-58851000D02*
X101568000Y-58851000D01*
X105442000Y-58851000D02*
X104545000Y-58851000D01*
X102465000Y-58811000D02*
X101534000Y-58811000D01*
X105476000Y-58811000D02*
X104545000Y-58811000D01*
X102465000Y-58771000D02*
X101501000Y-58771000D01*
X105509000Y-58771000D02*
X104545000Y-58771000D01*
X102465000Y-58731000D02*
X101470000Y-58731000D01*
X105540000Y-58731000D02*
X104545000Y-58731000D01*
X102465000Y-58691000D02*
X101440000Y-58691000D01*
X105570000Y-58691000D02*
X104545000Y-58691000D01*
X102465000Y-58651000D02*
X101410000Y-58651000D01*
X105600000Y-58651000D02*
X104545000Y-58651000D01*
X102465000Y-58611000D02*
X101383000Y-58611000D01*
X105627000Y-58611000D02*
X104545000Y-58611000D01*
X102465000Y-58571000D02*
X101356000Y-58571000D01*
X105654000Y-58571000D02*
X104545000Y-58571000D01*
X102465000Y-58531000D02*
X101330000Y-58531000D01*
X105680000Y-58531000D02*
X104545000Y-58531000D01*
X102465000Y-58491000D02*
X101305000Y-58491000D01*
X105705000Y-58491000D02*
X104545000Y-58491000D01*
X102465000Y-58451000D02*
X101281000Y-58451000D01*
X105729000Y-58451000D02*
X104545000Y-58451000D01*
X102465000Y-58411000D02*
X101258000Y-58411000D01*
X105752000Y-58411000D02*
X104545000Y-58411000D01*
X102465000Y-58371000D02*
X101237000Y-58371000D01*
X105773000Y-58371000D02*
X104545000Y-58371000D01*
X102465000Y-58331000D02*
X101215000Y-58331000D01*
X105795000Y-58331000D02*
X104545000Y-58331000D01*
X102465000Y-58291000D02*
X101195000Y-58291000D01*
X105815000Y-58291000D02*
X104545000Y-58291000D01*
X102465000Y-58251000D02*
X101176000Y-58251000D01*
X105834000Y-58251000D02*
X104545000Y-58251000D01*
X102465000Y-58211000D02*
X101157000Y-58211000D01*
X105853000Y-58211000D02*
X104545000Y-58211000D01*
X102465000Y-58171000D02*
X101140000Y-58171000D01*
X105870000Y-58171000D02*
X104545000Y-58171000D01*
X102465000Y-58131000D02*
X101123000Y-58131000D01*
X105887000Y-58131000D02*
X104545000Y-58131000D01*
X102465000Y-58091000D02*
X101107000Y-58091000D01*
X105903000Y-58091000D02*
X104545000Y-58091000D01*
X102465000Y-58051000D02*
X101091000Y-58051000D01*
X105919000Y-58051000D02*
X104545000Y-58051000D01*
X102465000Y-58011000D02*
X101077000Y-58011000D01*
X105933000Y-58011000D02*
X104545000Y-58011000D01*
X102465000Y-57971000D02*
X101063000Y-57971000D01*
X105947000Y-57971000D02*
X104545000Y-57971000D01*
X102465000Y-57931000D02*
X101050000Y-57931000D01*
X105960000Y-57931000D02*
X104545000Y-57931000D01*
X102465000Y-57891000D02*
X101037000Y-57891000D01*
X105973000Y-57891000D02*
X104545000Y-57891000D01*
X102465000Y-57851000D02*
X101025000Y-57851000D01*
X105985000Y-57851000D02*
X104545000Y-57851000D01*
X102465000Y-57810000D02*
X101014000Y-57810000D01*
X105996000Y-57810000D02*
X104545000Y-57810000D01*
X102465000Y-57770000D02*
X101004000Y-57770000D01*
X106006000Y-57770000D02*
X104545000Y-57770000D01*
X102465000Y-57730000D02*
X100994000Y-57730000D01*
X106016000Y-57730000D02*
X104545000Y-57730000D01*
X102465000Y-57690000D02*
X100985000Y-57690000D01*
X106025000Y-57690000D02*
X104545000Y-57690000D01*
X102465000Y-57650000D02*
X100977000Y-57650000D01*
X106033000Y-57650000D02*
X104545000Y-57650000D01*
X102465000Y-57610000D02*
X100969000Y-57610000D01*
X106041000Y-57610000D02*
X104545000Y-57610000D01*
X102465000Y-57570000D02*
X100962000Y-57570000D01*
X106048000Y-57570000D02*
X104545000Y-57570000D01*
X102465000Y-57530000D02*
X100955000Y-57530000D01*
X106055000Y-57530000D02*
X104545000Y-57530000D01*
X102465000Y-57490000D02*
X100949000Y-57490000D01*
X106061000Y-57490000D02*
X104545000Y-57490000D01*
X102465000Y-57450000D02*
X100944000Y-57450000D01*
X106066000Y-57450000D02*
X104545000Y-57450000D01*
X102465000Y-57410000D02*
X100940000Y-57410000D01*
X106070000Y-57410000D02*
X104545000Y-57410000D01*
X102465000Y-57370000D02*
X100936000Y-57370000D01*
X106074000Y-57370000D02*
X104545000Y-57370000D01*
X106078000Y-57330000D02*
X100932000Y-57330000D01*
X106081000Y-57290000D02*
X100929000Y-57290000D01*
X106083000Y-57250000D02*
X100927000Y-57250000D01*
X106084000Y-57210000D02*
X100926000Y-57210000D01*
X106085000Y-57170000D02*
X100925000Y-57170000D01*
X106085000Y-57130000D02*
X100925000Y-57130000D01*
X106125000Y-57130000D02*
G75*
G03*
X106125000Y-57130000I-2620000J0D01*
G01*
%TO.C,AT_XTAL_C1*%
X117930000Y-52075225D02*
X117430000Y-52075225D01*
X117680000Y-51825225D02*
X117680000Y-52325225D01*
X116489000Y-57231000D02*
X115921000Y-57231000D01*
X116723000Y-57191000D02*
X115687000Y-57191000D01*
X116882000Y-57151000D02*
X115528000Y-57151000D01*
X117010000Y-57111000D02*
X115400000Y-57111000D01*
X117120000Y-57071000D02*
X115290000Y-57071000D01*
X117216000Y-57031000D02*
X115194000Y-57031000D01*
X117303000Y-56991000D02*
X115107000Y-56991000D01*
X117383000Y-56951000D02*
X115027000Y-56951000D01*
X115165000Y-56911000D02*
X114954000Y-56911000D01*
X117456000Y-56911000D02*
X117245000Y-56911000D01*
X115165000Y-56871000D02*
X114886000Y-56871000D01*
X117524000Y-56871000D02*
X117245000Y-56871000D01*
X115165000Y-56831000D02*
X114822000Y-56831000D01*
X117588000Y-56831000D02*
X117245000Y-56831000D01*
X115165000Y-56791000D02*
X114762000Y-56791000D01*
X117648000Y-56791000D02*
X117245000Y-56791000D01*
X115165000Y-56751000D02*
X114705000Y-56751000D01*
X117705000Y-56751000D02*
X117245000Y-56751000D01*
X115165000Y-56711000D02*
X114651000Y-56711000D01*
X117759000Y-56711000D02*
X117245000Y-56711000D01*
X115165000Y-56671000D02*
X114600000Y-56671000D01*
X117810000Y-56671000D02*
X117245000Y-56671000D01*
X115165000Y-56631000D02*
X114552000Y-56631000D01*
X117858000Y-56631000D02*
X117245000Y-56631000D01*
X115165000Y-56591000D02*
X114506000Y-56591000D01*
X117904000Y-56591000D02*
X117245000Y-56591000D01*
X115165000Y-56551000D02*
X114462000Y-56551000D01*
X117948000Y-56551000D02*
X117245000Y-56551000D01*
X115165000Y-56511000D02*
X114420000Y-56511000D01*
X117990000Y-56511000D02*
X117245000Y-56511000D01*
X115165000Y-56471000D02*
X114379000Y-56471000D01*
X118031000Y-56471000D02*
X117245000Y-56471000D01*
X115165000Y-56431000D02*
X114341000Y-56431000D01*
X118069000Y-56431000D02*
X117245000Y-56431000D01*
X115165000Y-56391000D02*
X114304000Y-56391000D01*
X118106000Y-56391000D02*
X117245000Y-56391000D01*
X115165000Y-56351000D02*
X114268000Y-56351000D01*
X118142000Y-56351000D02*
X117245000Y-56351000D01*
X115165000Y-56311000D02*
X114234000Y-56311000D01*
X118176000Y-56311000D02*
X117245000Y-56311000D01*
X115165000Y-56271000D02*
X114201000Y-56271000D01*
X118209000Y-56271000D02*
X117245000Y-56271000D01*
X115165000Y-56231000D02*
X114170000Y-56231000D01*
X118240000Y-56231000D02*
X117245000Y-56231000D01*
X115165000Y-56191000D02*
X114140000Y-56191000D01*
X118270000Y-56191000D02*
X117245000Y-56191000D01*
X115165000Y-56151000D02*
X114110000Y-56151000D01*
X118300000Y-56151000D02*
X117245000Y-56151000D01*
X115165000Y-56111000D02*
X114083000Y-56111000D01*
X118327000Y-56111000D02*
X117245000Y-56111000D01*
X115165000Y-56071000D02*
X114056000Y-56071000D01*
X118354000Y-56071000D02*
X117245000Y-56071000D01*
X115165000Y-56031000D02*
X114030000Y-56031000D01*
X118380000Y-56031000D02*
X117245000Y-56031000D01*
X115165000Y-55991000D02*
X114005000Y-55991000D01*
X118405000Y-55991000D02*
X117245000Y-55991000D01*
X115165000Y-55951000D02*
X113981000Y-55951000D01*
X118429000Y-55951000D02*
X117245000Y-55951000D01*
X115165000Y-55911000D02*
X113958000Y-55911000D01*
X118452000Y-55911000D02*
X117245000Y-55911000D01*
X115165000Y-55871000D02*
X113937000Y-55871000D01*
X118473000Y-55871000D02*
X117245000Y-55871000D01*
X115165000Y-55831000D02*
X113915000Y-55831000D01*
X118495000Y-55831000D02*
X117245000Y-55831000D01*
X115165000Y-55791000D02*
X113895000Y-55791000D01*
X118515000Y-55791000D02*
X117245000Y-55791000D01*
X115165000Y-55751000D02*
X113876000Y-55751000D01*
X118534000Y-55751000D02*
X117245000Y-55751000D01*
X115165000Y-55711000D02*
X113857000Y-55711000D01*
X118553000Y-55711000D02*
X117245000Y-55711000D01*
X115165000Y-55671000D02*
X113840000Y-55671000D01*
X118570000Y-55671000D02*
X117245000Y-55671000D01*
X115165000Y-55631000D02*
X113823000Y-55631000D01*
X118587000Y-55631000D02*
X117245000Y-55631000D01*
X115165000Y-55591000D02*
X113807000Y-55591000D01*
X118603000Y-55591000D02*
X117245000Y-55591000D01*
X115165000Y-55551000D02*
X113791000Y-55551000D01*
X118619000Y-55551000D02*
X117245000Y-55551000D01*
X115165000Y-55511000D02*
X113777000Y-55511000D01*
X118633000Y-55511000D02*
X117245000Y-55511000D01*
X115165000Y-55471000D02*
X113763000Y-55471000D01*
X118647000Y-55471000D02*
X117245000Y-55471000D01*
X115165000Y-55431000D02*
X113750000Y-55431000D01*
X118660000Y-55431000D02*
X117245000Y-55431000D01*
X115165000Y-55391000D02*
X113737000Y-55391000D01*
X118673000Y-55391000D02*
X117245000Y-55391000D01*
X115165000Y-55351000D02*
X113725000Y-55351000D01*
X118685000Y-55351000D02*
X117245000Y-55351000D01*
X115165000Y-55310000D02*
X113714000Y-55310000D01*
X118696000Y-55310000D02*
X117245000Y-55310000D01*
X115165000Y-55270000D02*
X113704000Y-55270000D01*
X118706000Y-55270000D02*
X117245000Y-55270000D01*
X115165000Y-55230000D02*
X113694000Y-55230000D01*
X118716000Y-55230000D02*
X117245000Y-55230000D01*
X115165000Y-55190000D02*
X113685000Y-55190000D01*
X118725000Y-55190000D02*
X117245000Y-55190000D01*
X115165000Y-55150000D02*
X113677000Y-55150000D01*
X118733000Y-55150000D02*
X117245000Y-55150000D01*
X115165000Y-55110000D02*
X113669000Y-55110000D01*
X118741000Y-55110000D02*
X117245000Y-55110000D01*
X115165000Y-55070000D02*
X113662000Y-55070000D01*
X118748000Y-55070000D02*
X117245000Y-55070000D01*
X115165000Y-55030000D02*
X113655000Y-55030000D01*
X118755000Y-55030000D02*
X117245000Y-55030000D01*
X115165000Y-54990000D02*
X113649000Y-54990000D01*
X118761000Y-54990000D02*
X117245000Y-54990000D01*
X115165000Y-54950000D02*
X113644000Y-54950000D01*
X118766000Y-54950000D02*
X117245000Y-54950000D01*
X115165000Y-54910000D02*
X113640000Y-54910000D01*
X118770000Y-54910000D02*
X117245000Y-54910000D01*
X115165000Y-54870000D02*
X113636000Y-54870000D01*
X118774000Y-54870000D02*
X117245000Y-54870000D01*
X118778000Y-54830000D02*
X113632000Y-54830000D01*
X118781000Y-54790000D02*
X113629000Y-54790000D01*
X118783000Y-54750000D02*
X113627000Y-54750000D01*
X118784000Y-54710000D02*
X113626000Y-54710000D01*
X118785000Y-54670000D02*
X113625000Y-54670000D01*
X118785000Y-54630000D02*
X113625000Y-54630000D01*
X118825000Y-54630000D02*
G75*
G03*
X118825000Y-54630000I-2620000J0D01*
G01*
%TO.C,AT_OPEN_LIMIT1*%
X146050000Y-41275000D02*
X135890000Y-41275000D01*
X146050000Y-48895000D02*
X146050000Y-41275000D01*
X135890000Y-48895000D02*
X146050000Y-48895000D01*
X135890000Y-41275000D02*
X135890000Y-48895000D01*
X135890000Y-42545000D02*
X146050000Y-42545000D01*
%TO.C,AT_OPEN1*%
X107315000Y-41275000D02*
X97155000Y-41275000D01*
X107315000Y-48895000D02*
X107315000Y-41275000D01*
X97155000Y-48895000D02*
X107315000Y-48895000D01*
X97155000Y-41275000D02*
X97155000Y-48895000D01*
X97155000Y-42545000D02*
X107315000Y-42545000D01*
%TO.C,MV_SCREW1*%
X51435000Y-41275000D02*
X41275000Y-41275000D01*
X51435000Y-48895000D02*
X51435000Y-41275000D01*
X41275000Y-48895000D02*
X51435000Y-48895000D01*
X41275000Y-41275000D02*
X41275000Y-48895000D01*
X41275000Y-42545000D02*
X51435000Y-42545000D01*
%TO.C,MV_5V_D1*%
X49500000Y-54760000D02*
X49500000Y-51920000D01*
X49260000Y-54760000D02*
X49260000Y-51920000D01*
X49380000Y-54760000D02*
X49380000Y-51920000D01*
X46540000Y-51920000D02*
X46540000Y-52100000D01*
X49980000Y-51920000D02*
X46540000Y-51920000D01*
X49980000Y-52100000D02*
X49980000Y-51920000D01*
X46540000Y-54760000D02*
X46540000Y-54580000D01*
X49980000Y-54760000D02*
X46540000Y-54760000D01*
X49980000Y-54580000D02*
X49980000Y-54760000D01*
%TO.C,MV_5V_C1*%
X56975000Y-58659698D02*
X57775000Y-58659698D01*
X57375000Y-59059698D02*
X57375000Y-58259698D01*
X59157000Y-50569000D02*
X60223000Y-50569000D01*
X58922000Y-50609000D02*
X60458000Y-50609000D01*
X58742000Y-50649000D02*
X60638000Y-50649000D01*
X58592000Y-50689000D02*
X60788000Y-50689000D01*
X58461000Y-50729000D02*
X60919000Y-50729000D01*
X58344000Y-50769000D02*
X61036000Y-50769000D01*
X58237000Y-50809000D02*
X61143000Y-50809000D01*
X58138000Y-50849000D02*
X61242000Y-50849000D01*
X58045000Y-50889000D02*
X61335000Y-50889000D01*
X57959000Y-50929000D02*
X61421000Y-50929000D01*
X57877000Y-50969000D02*
X61503000Y-50969000D01*
X57800000Y-51009000D02*
X61580000Y-51009000D01*
X57726000Y-51049000D02*
X61654000Y-51049000D01*
X57656000Y-51089000D02*
X61724000Y-51089000D01*
X60730000Y-51129000D02*
X61792000Y-51129000D01*
X57588000Y-51129000D02*
X58650000Y-51129000D01*
X60730000Y-51169000D02*
X61856000Y-51169000D01*
X57524000Y-51169000D02*
X58650000Y-51169000D01*
X60730000Y-51209000D02*
X61918000Y-51209000D01*
X57462000Y-51209000D02*
X58650000Y-51209000D01*
X60730000Y-51249000D02*
X61977000Y-51249000D01*
X57403000Y-51249000D02*
X58650000Y-51249000D01*
X60730000Y-51289000D02*
X62035000Y-51289000D01*
X57345000Y-51289000D02*
X58650000Y-51289000D01*
X60730000Y-51329000D02*
X62090000Y-51329000D01*
X57290000Y-51329000D02*
X58650000Y-51329000D01*
X60730000Y-51369000D02*
X62144000Y-51369000D01*
X57236000Y-51369000D02*
X58650000Y-51369000D01*
X60730000Y-51409000D02*
X62195000Y-51409000D01*
X57185000Y-51409000D02*
X58650000Y-51409000D01*
X60730000Y-51449000D02*
X62246000Y-51449000D01*
X57134000Y-51449000D02*
X58650000Y-51449000D01*
X60730000Y-51489000D02*
X62294000Y-51489000D01*
X57086000Y-51489000D02*
X58650000Y-51489000D01*
X60730000Y-51529000D02*
X62341000Y-51529000D01*
X57039000Y-51529000D02*
X58650000Y-51529000D01*
X60730000Y-51569000D02*
X62387000Y-51569000D01*
X56993000Y-51569000D02*
X58650000Y-51569000D01*
X60730000Y-51609000D02*
X62431000Y-51609000D01*
X56949000Y-51609000D02*
X58650000Y-51609000D01*
X60730000Y-51649000D02*
X62474000Y-51649000D01*
X56906000Y-51649000D02*
X58650000Y-51649000D01*
X60730000Y-51689000D02*
X62516000Y-51689000D01*
X56864000Y-51689000D02*
X58650000Y-51689000D01*
X60730000Y-51729000D02*
X62557000Y-51729000D01*
X56823000Y-51729000D02*
X58650000Y-51729000D01*
X60730000Y-51769000D02*
X62597000Y-51769000D01*
X56783000Y-51769000D02*
X58650000Y-51769000D01*
X60730000Y-51809000D02*
X62635000Y-51809000D01*
X56745000Y-51809000D02*
X58650000Y-51809000D01*
X60730000Y-51849000D02*
X62673000Y-51849000D01*
X56707000Y-51849000D02*
X58650000Y-51849000D01*
X60730000Y-51889000D02*
X62709000Y-51889000D01*
X56671000Y-51889000D02*
X58650000Y-51889000D01*
X60730000Y-51929000D02*
X62745000Y-51929000D01*
X56635000Y-51929000D02*
X58650000Y-51929000D01*
X60730000Y-51969000D02*
X62780000Y-51969000D01*
X56600000Y-51969000D02*
X58650000Y-51969000D01*
X60730000Y-52009000D02*
X62814000Y-52009000D01*
X56566000Y-52009000D02*
X58650000Y-52009000D01*
X60730000Y-52049000D02*
X62846000Y-52049000D01*
X56534000Y-52049000D02*
X58650000Y-52049000D01*
X60730000Y-52089000D02*
X62879000Y-52089000D01*
X56501000Y-52089000D02*
X58650000Y-52089000D01*
X60730000Y-52129000D02*
X62910000Y-52129000D01*
X56470000Y-52129000D02*
X58650000Y-52129000D01*
X60730000Y-52169000D02*
X62940000Y-52169000D01*
X56440000Y-52169000D02*
X58650000Y-52169000D01*
X60730000Y-52209000D02*
X62970000Y-52209000D01*
X56410000Y-52209000D02*
X58650000Y-52209000D01*
X60730000Y-52249000D02*
X62999000Y-52249000D01*
X56381000Y-52249000D02*
X58650000Y-52249000D01*
X60730000Y-52289000D02*
X63028000Y-52289000D01*
X56352000Y-52289000D02*
X58650000Y-52289000D01*
X60730000Y-52329000D02*
X63055000Y-52329000D01*
X56325000Y-52329000D02*
X58650000Y-52329000D01*
X60730000Y-52369000D02*
X63082000Y-52369000D01*
X56298000Y-52369000D02*
X58650000Y-52369000D01*
X60730000Y-52409000D02*
X63108000Y-52409000D01*
X56272000Y-52409000D02*
X58650000Y-52409000D01*
X60730000Y-52449000D02*
X63134000Y-52449000D01*
X56246000Y-52449000D02*
X58650000Y-52449000D01*
X60730000Y-52489000D02*
X63159000Y-52489000D01*
X56221000Y-52489000D02*
X58650000Y-52489000D01*
X60730000Y-52529000D02*
X63183000Y-52529000D01*
X56197000Y-52529000D02*
X58650000Y-52529000D01*
X60730000Y-52569000D02*
X63207000Y-52569000D01*
X56173000Y-52569000D02*
X58650000Y-52569000D01*
X60730000Y-52609000D02*
X63230000Y-52609000D01*
X56150000Y-52609000D02*
X58650000Y-52609000D01*
X60730000Y-52649000D02*
X63252000Y-52649000D01*
X56128000Y-52649000D02*
X58650000Y-52649000D01*
X60730000Y-52689000D02*
X63274000Y-52689000D01*
X56106000Y-52689000D02*
X58650000Y-52689000D01*
X60730000Y-52729000D02*
X63296000Y-52729000D01*
X56084000Y-52729000D02*
X58650000Y-52729000D01*
X60730000Y-52769000D02*
X63317000Y-52769000D01*
X56063000Y-52769000D02*
X58650000Y-52769000D01*
X60730000Y-52809000D02*
X63337000Y-52809000D01*
X56043000Y-52809000D02*
X58650000Y-52809000D01*
X60730000Y-52849000D02*
X63356000Y-52849000D01*
X56024000Y-52849000D02*
X58650000Y-52849000D01*
X60730000Y-52889000D02*
X63376000Y-52889000D01*
X56004000Y-52889000D02*
X58650000Y-52889000D01*
X60730000Y-52929000D02*
X63394000Y-52929000D01*
X55986000Y-52929000D02*
X58650000Y-52929000D01*
X60730000Y-52969000D02*
X63412000Y-52969000D01*
X55968000Y-52969000D02*
X58650000Y-52969000D01*
X60730000Y-53009000D02*
X63430000Y-53009000D01*
X55950000Y-53009000D02*
X58650000Y-53009000D01*
X60730000Y-53049000D02*
X63447000Y-53049000D01*
X55933000Y-53049000D02*
X58650000Y-53049000D01*
X60730000Y-53089000D02*
X63464000Y-53089000D01*
X55916000Y-53089000D02*
X58650000Y-53089000D01*
X60730000Y-53129000D02*
X63480000Y-53129000D01*
X55900000Y-53129000D02*
X58650000Y-53129000D01*
X60730000Y-53169000D02*
X63495000Y-53169000D01*
X55885000Y-53169000D02*
X58650000Y-53169000D01*
X55869000Y-53209000D02*
X63511000Y-53209000D01*
X55855000Y-53249000D02*
X63525000Y-53249000D01*
X55840000Y-53289000D02*
X63540000Y-53289000D01*
X55827000Y-53329000D02*
X63553000Y-53329000D01*
X55813000Y-53369000D02*
X63567000Y-53369000D01*
X55801000Y-53409000D02*
X63579000Y-53409000D01*
X55788000Y-53449000D02*
X63592000Y-53449000D01*
X55776000Y-53489000D02*
X63604000Y-53489000D01*
X55765000Y-53529000D02*
X63615000Y-53529000D01*
X55754000Y-53569000D02*
X63626000Y-53569000D01*
X55743000Y-53609000D02*
X63637000Y-53609000D01*
X55733000Y-53649000D02*
X63647000Y-53649000D01*
X55723000Y-53689000D02*
X63657000Y-53689000D01*
X55714000Y-53729000D02*
X63666000Y-53729000D01*
X55705000Y-53769000D02*
X63675000Y-53769000D01*
X55696000Y-53809000D02*
X63684000Y-53809000D01*
X55688000Y-53849000D02*
X63692000Y-53849000D01*
X55680000Y-53889000D02*
X63700000Y-53889000D01*
X55673000Y-53929000D02*
X63707000Y-53929000D01*
X55666000Y-53970000D02*
X63714000Y-53970000D01*
X55660000Y-54010000D02*
X63720000Y-54010000D01*
X55653000Y-54050000D02*
X63727000Y-54050000D01*
X55648000Y-54090000D02*
X63732000Y-54090000D01*
X55642000Y-54130000D02*
X63738000Y-54130000D01*
X55638000Y-54170000D02*
X63742000Y-54170000D01*
X55633000Y-54210000D02*
X63747000Y-54210000D01*
X55629000Y-54250000D02*
X63751000Y-54250000D01*
X55625000Y-54290000D02*
X63755000Y-54290000D01*
X55622000Y-54330000D02*
X63758000Y-54330000D01*
X55619000Y-54370000D02*
X63761000Y-54370000D01*
X55616000Y-54410000D02*
X63764000Y-54410000D01*
X55614000Y-54450000D02*
X63766000Y-54450000D01*
X55613000Y-54490000D02*
X63767000Y-54490000D01*
X55611000Y-54530000D02*
X63769000Y-54530000D01*
X55610000Y-54570000D02*
X63770000Y-54570000D01*
X55610000Y-54610000D02*
X63770000Y-54610000D01*
X55610000Y-54650000D02*
X63770000Y-54650000D01*
X63810000Y-54650000D02*
G75*
G03*
X63810000Y-54650000I-4120000J0D01*
G01*
%TO.C,MV_5V_7805*%
X61541000Y-41815000D02*
X61541000Y-43325000D01*
X57840000Y-41815000D02*
X57840000Y-43325000D01*
X54570000Y-43325000D02*
X64810000Y-43325000D01*
X64810000Y-41815000D02*
X64810000Y-46456000D01*
X54570000Y-41815000D02*
X54570000Y-46456000D01*
X54570000Y-46456000D02*
X64810000Y-46456000D01*
X54570000Y-41815000D02*
X64810000Y-41815000D01*
%TO.C,MV_12V_D1*%
X49500000Y-62380000D02*
X49500000Y-59540000D01*
X49260000Y-62380000D02*
X49260000Y-59540000D01*
X49380000Y-62380000D02*
X49380000Y-59540000D01*
X46540000Y-59540000D02*
X46540000Y-59720000D01*
X49980000Y-59540000D02*
X46540000Y-59540000D01*
X49980000Y-59720000D02*
X49980000Y-59540000D01*
X46540000Y-62380000D02*
X46540000Y-62200000D01*
X49980000Y-62380000D02*
X46540000Y-62380000D01*
X49980000Y-62200000D02*
X49980000Y-62380000D01*
%TO.C,MV_12V_7812*%
X61541000Y-63405000D02*
X61541000Y-64915000D01*
X57840000Y-63405000D02*
X57840000Y-64915000D01*
X54570000Y-64915000D02*
X64810000Y-64915000D01*
X64810000Y-63405000D02*
X64810000Y-68046000D01*
X54570000Y-63405000D02*
X54570000Y-68046000D01*
X54570000Y-68046000D02*
X64810000Y-68046000D01*
X54570000Y-63405000D02*
X64810000Y-63405000D01*
%TO.C,AT_XTAL1*%
X108950000Y-61390000D02*
X111950000Y-61390000D01*
X108950000Y-57990000D02*
X111950000Y-57990000D01*
X113287790Y-60738961D02*
G75*
G02*
X111950000Y-61390000I-1337790J1048961D01*
G01*
X107612210Y-60738961D02*
G75*
G03*
X108950000Y-61390000I1337790J1048961D01*
G01*
X113287790Y-58641039D02*
G75*
G03*
X111950000Y-57990000I-1337790J-1048961D01*
G01*
X107612210Y-58641039D02*
G75*
G02*
X108950000Y-57990000I1337790J-1048961D01*
G01*
%TO.C,AT_V_C1*%
X79614698Y-66215000D02*
X79614698Y-65415000D01*
X80014698Y-65815000D02*
X79214698Y-65815000D01*
X71524000Y-64033000D02*
X71524000Y-62967000D01*
X71564000Y-64268000D02*
X71564000Y-62732000D01*
X71604000Y-64448000D02*
X71604000Y-62552000D01*
X71644000Y-64598000D02*
X71644000Y-62402000D01*
X71684000Y-64729000D02*
X71684000Y-62271000D01*
X71724000Y-64846000D02*
X71724000Y-62154000D01*
X71764000Y-64953000D02*
X71764000Y-62047000D01*
X71804000Y-65052000D02*
X71804000Y-61948000D01*
X71844000Y-65145000D02*
X71844000Y-61855000D01*
X71884000Y-65231000D02*
X71884000Y-61769000D01*
X71924000Y-65313000D02*
X71924000Y-61687000D01*
X71964000Y-65390000D02*
X71964000Y-61610000D01*
X72004000Y-65464000D02*
X72004000Y-61536000D01*
X72044000Y-65534000D02*
X72044000Y-61466000D01*
X72084000Y-62460000D02*
X72084000Y-61398000D01*
X72084000Y-65602000D02*
X72084000Y-64540000D01*
X72124000Y-62460000D02*
X72124000Y-61334000D01*
X72124000Y-65666000D02*
X72124000Y-64540000D01*
X72164000Y-62460000D02*
X72164000Y-61272000D01*
X72164000Y-65728000D02*
X72164000Y-64540000D01*
X72204000Y-62460000D02*
X72204000Y-61213000D01*
X72204000Y-65787000D02*
X72204000Y-64540000D01*
X72244000Y-62460000D02*
X72244000Y-61155000D01*
X72244000Y-65845000D02*
X72244000Y-64540000D01*
X72284000Y-62460000D02*
X72284000Y-61100000D01*
X72284000Y-65900000D02*
X72284000Y-64540000D01*
X72324000Y-62460000D02*
X72324000Y-61046000D01*
X72324000Y-65954000D02*
X72324000Y-64540000D01*
X72364000Y-62460000D02*
X72364000Y-60995000D01*
X72364000Y-66005000D02*
X72364000Y-64540000D01*
X72404000Y-62460000D02*
X72404000Y-60944000D01*
X72404000Y-66056000D02*
X72404000Y-64540000D01*
X72444000Y-62460000D02*
X72444000Y-60896000D01*
X72444000Y-66104000D02*
X72444000Y-64540000D01*
X72484000Y-62460000D02*
X72484000Y-60849000D01*
X72484000Y-66151000D02*
X72484000Y-64540000D01*
X72524000Y-62460000D02*
X72524000Y-60803000D01*
X72524000Y-66197000D02*
X72524000Y-64540000D01*
X72564000Y-62460000D02*
X72564000Y-60759000D01*
X72564000Y-66241000D02*
X72564000Y-64540000D01*
X72604000Y-62460000D02*
X72604000Y-60716000D01*
X72604000Y-66284000D02*
X72604000Y-64540000D01*
X72644000Y-62460000D02*
X72644000Y-60674000D01*
X72644000Y-66326000D02*
X72644000Y-64540000D01*
X72684000Y-62460000D02*
X72684000Y-60633000D01*
X72684000Y-66367000D02*
X72684000Y-64540000D01*
X72724000Y-62460000D02*
X72724000Y-60593000D01*
X72724000Y-66407000D02*
X72724000Y-64540000D01*
X72764000Y-62460000D02*
X72764000Y-60555000D01*
X72764000Y-66445000D02*
X72764000Y-64540000D01*
X72804000Y-62460000D02*
X72804000Y-60517000D01*
X72804000Y-66483000D02*
X72804000Y-64540000D01*
X72844000Y-62460000D02*
X72844000Y-60481000D01*
X72844000Y-66519000D02*
X72844000Y-64540000D01*
X72884000Y-62460000D02*
X72884000Y-60445000D01*
X72884000Y-66555000D02*
X72884000Y-64540000D01*
X72924000Y-62460000D02*
X72924000Y-60410000D01*
X72924000Y-66590000D02*
X72924000Y-64540000D01*
X72964000Y-62460000D02*
X72964000Y-60376000D01*
X72964000Y-66624000D02*
X72964000Y-64540000D01*
X73004000Y-62460000D02*
X73004000Y-60344000D01*
X73004000Y-66656000D02*
X73004000Y-64540000D01*
X73044000Y-62460000D02*
X73044000Y-60311000D01*
X73044000Y-66689000D02*
X73044000Y-64540000D01*
X73084000Y-62460000D02*
X73084000Y-60280000D01*
X73084000Y-66720000D02*
X73084000Y-64540000D01*
X73124000Y-62460000D02*
X73124000Y-60250000D01*
X73124000Y-66750000D02*
X73124000Y-64540000D01*
X73164000Y-62460000D02*
X73164000Y-60220000D01*
X73164000Y-66780000D02*
X73164000Y-64540000D01*
X73204000Y-62460000D02*
X73204000Y-60191000D01*
X73204000Y-66809000D02*
X73204000Y-64540000D01*
X73244000Y-62460000D02*
X73244000Y-60162000D01*
X73244000Y-66838000D02*
X73244000Y-64540000D01*
X73284000Y-62460000D02*
X73284000Y-60135000D01*
X73284000Y-66865000D02*
X73284000Y-64540000D01*
X73324000Y-62460000D02*
X73324000Y-60108000D01*
X73324000Y-66892000D02*
X73324000Y-64540000D01*
X73364000Y-62460000D02*
X73364000Y-60082000D01*
X73364000Y-66918000D02*
X73364000Y-64540000D01*
X73404000Y-62460000D02*
X73404000Y-60056000D01*
X73404000Y-66944000D02*
X73404000Y-64540000D01*
X73444000Y-62460000D02*
X73444000Y-60031000D01*
X73444000Y-66969000D02*
X73444000Y-64540000D01*
X73484000Y-62460000D02*
X73484000Y-60007000D01*
X73484000Y-66993000D02*
X73484000Y-64540000D01*
X73524000Y-62460000D02*
X73524000Y-59983000D01*
X73524000Y-67017000D02*
X73524000Y-64540000D01*
X73564000Y-62460000D02*
X73564000Y-59960000D01*
X73564000Y-67040000D02*
X73564000Y-64540000D01*
X73604000Y-62460000D02*
X73604000Y-59938000D01*
X73604000Y-67062000D02*
X73604000Y-64540000D01*
X73644000Y-62460000D02*
X73644000Y-59916000D01*
X73644000Y-67084000D02*
X73644000Y-64540000D01*
X73684000Y-62460000D02*
X73684000Y-59894000D01*
X73684000Y-67106000D02*
X73684000Y-64540000D01*
X73724000Y-62460000D02*
X73724000Y-59873000D01*
X73724000Y-67127000D02*
X73724000Y-64540000D01*
X73764000Y-62460000D02*
X73764000Y-59853000D01*
X73764000Y-67147000D02*
X73764000Y-64540000D01*
X73804000Y-62460000D02*
X73804000Y-59834000D01*
X73804000Y-67166000D02*
X73804000Y-64540000D01*
X73844000Y-62460000D02*
X73844000Y-59814000D01*
X73844000Y-67186000D02*
X73844000Y-64540000D01*
X73884000Y-62460000D02*
X73884000Y-59796000D01*
X73884000Y-67204000D02*
X73884000Y-64540000D01*
X73924000Y-62460000D02*
X73924000Y-59778000D01*
X73924000Y-67222000D02*
X73924000Y-64540000D01*
X73964000Y-62460000D02*
X73964000Y-59760000D01*
X73964000Y-67240000D02*
X73964000Y-64540000D01*
X74004000Y-62460000D02*
X74004000Y-59743000D01*
X74004000Y-67257000D02*
X74004000Y-64540000D01*
X74044000Y-62460000D02*
X74044000Y-59726000D01*
X74044000Y-67274000D02*
X74044000Y-64540000D01*
X74084000Y-62460000D02*
X74084000Y-59710000D01*
X74084000Y-67290000D02*
X74084000Y-64540000D01*
X74124000Y-62460000D02*
X74124000Y-59695000D01*
X74124000Y-67305000D02*
X74124000Y-64540000D01*
X74164000Y-67321000D02*
X74164000Y-59679000D01*
X74204000Y-67335000D02*
X74204000Y-59665000D01*
X74244000Y-67350000D02*
X74244000Y-59650000D01*
X74284000Y-67363000D02*
X74284000Y-59637000D01*
X74324000Y-67377000D02*
X74324000Y-59623000D01*
X74364000Y-67389000D02*
X74364000Y-59611000D01*
X74404000Y-67402000D02*
X74404000Y-59598000D01*
X74444000Y-67414000D02*
X74444000Y-59586000D01*
X74484000Y-67425000D02*
X74484000Y-59575000D01*
X74524000Y-67436000D02*
X74524000Y-59564000D01*
X74564000Y-67447000D02*
X74564000Y-59553000D01*
X74604000Y-67457000D02*
X74604000Y-59543000D01*
X74644000Y-67467000D02*
X74644000Y-59533000D01*
X74684000Y-67476000D02*
X74684000Y-59524000D01*
X74724000Y-67485000D02*
X74724000Y-59515000D01*
X74764000Y-67494000D02*
X74764000Y-59506000D01*
X74804000Y-67502000D02*
X74804000Y-59498000D01*
X74844000Y-67510000D02*
X74844000Y-59490000D01*
X74884000Y-67517000D02*
X74884000Y-59483000D01*
X74925000Y-67524000D02*
X74925000Y-59476000D01*
X74965000Y-67530000D02*
X74965000Y-59470000D01*
X75005000Y-67537000D02*
X75005000Y-59463000D01*
X75045000Y-67542000D02*
X75045000Y-59458000D01*
X75085000Y-67548000D02*
X75085000Y-59452000D01*
X75125000Y-67552000D02*
X75125000Y-59448000D01*
X75165000Y-67557000D02*
X75165000Y-59443000D01*
X75205000Y-67561000D02*
X75205000Y-59439000D01*
X75245000Y-67565000D02*
X75245000Y-59435000D01*
X75285000Y-67568000D02*
X75285000Y-59432000D01*
X75325000Y-67571000D02*
X75325000Y-59429000D01*
X75365000Y-67574000D02*
X75365000Y-59426000D01*
X75405000Y-67576000D02*
X75405000Y-59424000D01*
X75445000Y-67577000D02*
X75445000Y-59423000D01*
X75485000Y-67579000D02*
X75485000Y-59421000D01*
X75525000Y-67580000D02*
X75525000Y-59420000D01*
X75565000Y-67580000D02*
X75565000Y-59420000D01*
X75605000Y-67580000D02*
X75605000Y-59420000D01*
X79725000Y-63500000D02*
G75*
G03*
X79725000Y-63500000I-4120000J0D01*
G01*
%TO.C,AT_STOP1*%
X131445000Y-41275000D02*
X121285000Y-41275000D01*
X131445000Y-48895000D02*
X131445000Y-41275000D01*
X121285000Y-48895000D02*
X131445000Y-48895000D01*
X121285000Y-41275000D02*
X121285000Y-48895000D01*
X121285000Y-42545000D02*
X131445000Y-42545000D01*
%TO.C,AT_RES_SW1*%
X78505000Y-46180000D02*
X78505000Y-44680000D01*
X77255000Y-42180000D02*
X72755000Y-42180000D01*
X71505000Y-44680000D02*
X71505000Y-46180000D01*
X72755000Y-48680000D02*
X77255000Y-48680000D01*
%TO.C,AT_RES_R1*%
X73645000Y-54260000D02*
X77485000Y-54260000D01*
X73645000Y-52420000D02*
X77485000Y-52420000D01*
%TO.C,AT_R1*%
X74930000Y-72105000D02*
X74930000Y-71485000D01*
X75850000Y-73025000D02*
G75*
G03*
X75850000Y-73025000I-920000J0D01*
G01*
%TO.C,AT_OPENSW_SCREW1*%
X157555000Y-79425000D02*
X167715000Y-79425000D01*
X157555000Y-71805000D02*
X157555000Y-79425000D01*
X167715000Y-71805000D02*
X157555000Y-71805000D01*
X167715000Y-79425000D02*
X167715000Y-71805000D01*
X167715000Y-78155000D02*
X157555000Y-78155000D01*
%TO.C,AT_OPENSW_R1*%
X164480000Y-58135000D02*
X160640000Y-58135000D01*
X164480000Y-59975000D02*
X160640000Y-59975000D01*
%TO.C,AT_LED1*%
X70760000Y-69195000D02*
X67670000Y-69195000D01*
X71715000Y-71755000D02*
G75*
G03*
X71715000Y-71755000I-2500000J0D01*
G01*
X69215462Y-74745000D02*
G75*
G02*
X67670170Y-69195000I-462J2990000D01*
G01*
X69214538Y-74745000D02*
G75*
G03*
X70759830Y-69195000I462J2990000D01*
G01*
%TO.C,AT_INDI_SCREW1*%
X170180000Y-41275000D02*
X160020000Y-41275000D01*
X170180000Y-48895000D02*
X170180000Y-41275000D01*
X160020000Y-48895000D02*
X170180000Y-48895000D01*
X160020000Y-41275000D02*
X160020000Y-48895000D01*
X160020000Y-42545000D02*
X170180000Y-42545000D01*
%TO.C,AT_CLOSESW_SCREW1*%
X140335000Y-79375000D02*
X150495000Y-79375000D01*
X140335000Y-71755000D02*
X140335000Y-79375000D01*
X150495000Y-71755000D02*
X140335000Y-71755000D01*
X150495000Y-79375000D02*
X150495000Y-71755000D01*
X150495000Y-78105000D02*
X140335000Y-78105000D01*
%TO.C,AT_CLOSESW_R1*%
X147335000Y-58135000D02*
X143495000Y-58135000D01*
X147335000Y-59975000D02*
X143495000Y-59975000D01*
%TO.C,AT_CLOSE_LIMIT1*%
X158115000Y-41275000D02*
X147955000Y-41275000D01*
X158115000Y-48895000D02*
X158115000Y-41275000D01*
X147955000Y-48895000D02*
X158115000Y-48895000D01*
X147955000Y-41275000D02*
X147955000Y-48895000D01*
X147955000Y-42545000D02*
X158115000Y-42545000D01*
%TO.C,AT_CLOSE1*%
X119380000Y-41275000D02*
X109220000Y-41275000D01*
X119380000Y-48895000D02*
X119380000Y-41275000D01*
X109220000Y-48895000D02*
X119380000Y-48895000D01*
X109220000Y-41275000D02*
X109220000Y-48895000D01*
X109220000Y-42545000D02*
X119380000Y-42545000D01*
%TO.C,AT_OPENSW_Q1*%
D11*
X158401428Y-63281666D02*
X158877619Y-63281666D01*
X158306190Y-63567380D02*
X158639523Y-62567380D01*
X158972857Y-63567380D01*
X159163333Y-62567380D02*
X159734761Y-62567380D01*
X159449047Y-63567380D02*
X159449047Y-62567380D01*
X159830000Y-63662619D02*
X160591904Y-63662619D01*
X161020476Y-62567380D02*
X161210952Y-62567380D01*
X161306190Y-62615000D01*
X161401428Y-62710238D01*
X161449047Y-62900714D01*
X161449047Y-63234047D01*
X161401428Y-63424523D01*
X161306190Y-63519761D01*
X161210952Y-63567380D01*
X161020476Y-63567380D01*
X160925238Y-63519761D01*
X160830000Y-63424523D01*
X160782380Y-63234047D01*
X160782380Y-62900714D01*
X160830000Y-62710238D01*
X160925238Y-62615000D01*
X161020476Y-62567380D01*
X161877619Y-63567380D02*
X161877619Y-62567380D01*
X162258571Y-62567380D01*
X162353809Y-62615000D01*
X162401428Y-62662619D01*
X162449047Y-62757857D01*
X162449047Y-62900714D01*
X162401428Y-62995952D01*
X162353809Y-63043571D01*
X162258571Y-63091190D01*
X161877619Y-63091190D01*
X162877619Y-63043571D02*
X163210952Y-63043571D01*
X163353809Y-63567380D02*
X162877619Y-63567380D01*
X162877619Y-62567380D01*
X163353809Y-62567380D01*
X163782380Y-63567380D02*
X163782380Y-62567380D01*
X164353809Y-63567380D01*
X164353809Y-62567380D01*
X164782380Y-63519761D02*
X164925238Y-63567380D01*
X165163333Y-63567380D01*
X165258571Y-63519761D01*
X165306190Y-63472142D01*
X165353809Y-63376904D01*
X165353809Y-63281666D01*
X165306190Y-63186428D01*
X165258571Y-63138809D01*
X165163333Y-63091190D01*
X164972857Y-63043571D01*
X164877619Y-62995952D01*
X164830000Y-62948333D01*
X164782380Y-62853095D01*
X164782380Y-62757857D01*
X164830000Y-62662619D01*
X164877619Y-62615000D01*
X164972857Y-62567380D01*
X165210952Y-62567380D01*
X165353809Y-62615000D01*
X165687142Y-62567380D02*
X165925238Y-63567380D01*
X166115714Y-62853095D01*
X166306190Y-63567380D01*
X166544285Y-62567380D01*
X166687142Y-63662619D02*
X167449047Y-63662619D01*
X168353809Y-63662619D02*
X168258571Y-63615000D01*
X168163333Y-63519761D01*
X168020476Y-63376904D01*
X167925238Y-63329285D01*
X167830000Y-63329285D01*
X167877619Y-63567380D02*
X167782380Y-63519761D01*
X167687142Y-63424523D01*
X167639523Y-63234047D01*
X167639523Y-62900714D01*
X167687142Y-62710238D01*
X167782380Y-62615000D01*
X167877619Y-62567380D01*
X168068095Y-62567380D01*
X168163333Y-62615000D01*
X168258571Y-62710238D01*
X168306190Y-62900714D01*
X168306190Y-63234047D01*
X168258571Y-63424523D01*
X168163333Y-63519761D01*
X168068095Y-63567380D01*
X167877619Y-63567380D01*
X169258571Y-63567380D02*
X168687142Y-63567380D01*
X168972857Y-63567380D02*
X168972857Y-62567380D01*
X168877619Y-62710238D01*
X168782380Y-62805476D01*
X168687142Y-62853095D01*
%TO.C,AT_CLOSESW_Q1*%
X140899285Y-63281666D02*
X141375476Y-63281666D01*
X140804047Y-63567380D02*
X141137380Y-62567380D01*
X141470714Y-63567380D01*
X141661190Y-62567380D02*
X142232619Y-62567380D01*
X141946904Y-63567380D02*
X141946904Y-62567380D01*
X142327857Y-63662619D02*
X143089761Y-63662619D01*
X143899285Y-63472142D02*
X143851666Y-63519761D01*
X143708809Y-63567380D01*
X143613571Y-63567380D01*
X143470714Y-63519761D01*
X143375476Y-63424523D01*
X143327857Y-63329285D01*
X143280238Y-63138809D01*
X143280238Y-62995952D01*
X143327857Y-62805476D01*
X143375476Y-62710238D01*
X143470714Y-62615000D01*
X143613571Y-62567380D01*
X143708809Y-62567380D01*
X143851666Y-62615000D01*
X143899285Y-62662619D01*
X144804047Y-63567380D02*
X144327857Y-63567380D01*
X144327857Y-62567380D01*
X145327857Y-62567380D02*
X145518333Y-62567380D01*
X145613571Y-62615000D01*
X145708809Y-62710238D01*
X145756428Y-62900714D01*
X145756428Y-63234047D01*
X145708809Y-63424523D01*
X145613571Y-63519761D01*
X145518333Y-63567380D01*
X145327857Y-63567380D01*
X145232619Y-63519761D01*
X145137380Y-63424523D01*
X145089761Y-63234047D01*
X145089761Y-62900714D01*
X145137380Y-62710238D01*
X145232619Y-62615000D01*
X145327857Y-62567380D01*
X146137380Y-63519761D02*
X146280238Y-63567380D01*
X146518333Y-63567380D01*
X146613571Y-63519761D01*
X146661190Y-63472142D01*
X146708809Y-63376904D01*
X146708809Y-63281666D01*
X146661190Y-63186428D01*
X146613571Y-63138809D01*
X146518333Y-63091190D01*
X146327857Y-63043571D01*
X146232619Y-62995952D01*
X146185000Y-62948333D01*
X146137380Y-62853095D01*
X146137380Y-62757857D01*
X146185000Y-62662619D01*
X146232619Y-62615000D01*
X146327857Y-62567380D01*
X146565952Y-62567380D01*
X146708809Y-62615000D01*
X147137380Y-63043571D02*
X147470714Y-63043571D01*
X147613571Y-63567380D02*
X147137380Y-63567380D01*
X147137380Y-62567380D01*
X147613571Y-62567380D01*
X147994523Y-63519761D02*
X148137380Y-63567380D01*
X148375476Y-63567380D01*
X148470714Y-63519761D01*
X148518333Y-63472142D01*
X148565952Y-63376904D01*
X148565952Y-63281666D01*
X148518333Y-63186428D01*
X148470714Y-63138809D01*
X148375476Y-63091190D01*
X148185000Y-63043571D01*
X148089761Y-62995952D01*
X148042142Y-62948333D01*
X147994523Y-62853095D01*
X147994523Y-62757857D01*
X148042142Y-62662619D01*
X148089761Y-62615000D01*
X148185000Y-62567380D01*
X148423095Y-62567380D01*
X148565952Y-62615000D01*
X148899285Y-62567380D02*
X149137380Y-63567380D01*
X149327857Y-62853095D01*
X149518333Y-63567380D01*
X149756428Y-62567380D01*
X149899285Y-63662619D02*
X150661190Y-63662619D01*
X151565952Y-63662619D02*
X151470714Y-63615000D01*
X151375476Y-63519761D01*
X151232619Y-63376904D01*
X151137380Y-63329285D01*
X151042142Y-63329285D01*
X151089761Y-63567380D02*
X150994523Y-63519761D01*
X150899285Y-63424523D01*
X150851666Y-63234047D01*
X150851666Y-62900714D01*
X150899285Y-62710238D01*
X150994523Y-62615000D01*
X151089761Y-62567380D01*
X151280238Y-62567380D01*
X151375476Y-62615000D01*
X151470714Y-62710238D01*
X151518333Y-62900714D01*
X151518333Y-63234047D01*
X151470714Y-63424523D01*
X151375476Y-63519761D01*
X151280238Y-63567380D01*
X151089761Y-63567380D01*
X152470714Y-63567380D02*
X151899285Y-63567380D01*
X152185000Y-63567380D02*
X152185000Y-62567380D01*
X152089761Y-62710238D01*
X151994523Y-62805476D01*
X151899285Y-62853095D01*
%TO.C,AT_XTAL_C2*%
X108921666Y-61827619D02*
X108921666Y-61351428D01*
X109207380Y-61922857D02*
X108207380Y-61589523D01*
X109207380Y-61256190D01*
X108207380Y-61065714D02*
X108207380Y-60494285D01*
X109207380Y-60780000D02*
X108207380Y-60780000D01*
X109302619Y-60399047D02*
X109302619Y-59637142D01*
X108207380Y-59494285D02*
X109207380Y-58827619D01*
X108207380Y-58827619D02*
X109207380Y-59494285D01*
X108207380Y-58589523D02*
X108207380Y-58018095D01*
X109207380Y-58303809D02*
X108207380Y-58303809D01*
X108921666Y-57732380D02*
X108921666Y-57256190D01*
X109207380Y-57827619D02*
X108207380Y-57494285D01*
X109207380Y-57160952D01*
X109207380Y-56351428D02*
X109207380Y-56827619D01*
X108207380Y-56827619D01*
X109302619Y-56256190D02*
X109302619Y-55494285D01*
X109112142Y-54684761D02*
X109159761Y-54732380D01*
X109207380Y-54875238D01*
X109207380Y-54970476D01*
X109159761Y-55113333D01*
X109064523Y-55208571D01*
X108969285Y-55256190D01*
X108778809Y-55303809D01*
X108635952Y-55303809D01*
X108445476Y-55256190D01*
X108350238Y-55208571D01*
X108255000Y-55113333D01*
X108207380Y-54970476D01*
X108207380Y-54875238D01*
X108255000Y-54732380D01*
X108302619Y-54684761D01*
X108302619Y-54303809D02*
X108255000Y-54256190D01*
X108207380Y-54160952D01*
X108207380Y-53922857D01*
X108255000Y-53827619D01*
X108302619Y-53780000D01*
X108397857Y-53732380D01*
X108493095Y-53732380D01*
X108635952Y-53780000D01*
X109207380Y-54351428D01*
X109207380Y-53732380D01*
%TO.C,AT_XTAL_C1*%
X121621666Y-59327619D02*
X121621666Y-58851428D01*
X121907380Y-59422857D02*
X120907380Y-59089523D01*
X121907380Y-58756190D01*
X120907380Y-58565714D02*
X120907380Y-57994285D01*
X121907380Y-58280000D02*
X120907380Y-58280000D01*
X122002619Y-57899047D02*
X122002619Y-57137142D01*
X120907380Y-56994285D02*
X121907380Y-56327619D01*
X120907380Y-56327619D02*
X121907380Y-56994285D01*
X120907380Y-56089523D02*
X120907380Y-55518095D01*
X121907380Y-55803809D02*
X120907380Y-55803809D01*
X121621666Y-55232380D02*
X121621666Y-54756190D01*
X121907380Y-55327619D02*
X120907380Y-54994285D01*
X121907380Y-54660952D01*
X121907380Y-53851428D02*
X121907380Y-54327619D01*
X120907380Y-54327619D01*
X122002619Y-53756190D02*
X122002619Y-52994285D01*
X121812142Y-52184761D02*
X121859761Y-52232380D01*
X121907380Y-52375238D01*
X121907380Y-52470476D01*
X121859761Y-52613333D01*
X121764523Y-52708571D01*
X121669285Y-52756190D01*
X121478809Y-52803809D01*
X121335952Y-52803809D01*
X121145476Y-52756190D01*
X121050238Y-52708571D01*
X120955000Y-52613333D01*
X120907380Y-52470476D01*
X120907380Y-52375238D01*
X120955000Y-52232380D01*
X121002619Y-52184761D01*
X121907380Y-51232380D02*
X121907380Y-51803809D01*
X121907380Y-51518095D02*
X120907380Y-51518095D01*
X121050238Y-51613333D01*
X121145476Y-51708571D01*
X121193095Y-51803809D01*
%TO.C,AT_OPEN_LIMIT1*%
X135279523Y-50331666D02*
X135755714Y-50331666D01*
X135184285Y-50617380D02*
X135517619Y-49617380D01*
X135850952Y-50617380D01*
X136041428Y-49617380D02*
X136612857Y-49617380D01*
X136327142Y-50617380D02*
X136327142Y-49617380D01*
X136708095Y-50712619D02*
X137470000Y-50712619D01*
X137898571Y-49617380D02*
X138089047Y-49617380D01*
X138184285Y-49665000D01*
X138279523Y-49760238D01*
X138327142Y-49950714D01*
X138327142Y-50284047D01*
X138279523Y-50474523D01*
X138184285Y-50569761D01*
X138089047Y-50617380D01*
X137898571Y-50617380D01*
X137803333Y-50569761D01*
X137708095Y-50474523D01*
X137660476Y-50284047D01*
X137660476Y-49950714D01*
X137708095Y-49760238D01*
X137803333Y-49665000D01*
X137898571Y-49617380D01*
X138755714Y-50617380D02*
X138755714Y-49617380D01*
X139136666Y-49617380D01*
X139231904Y-49665000D01*
X139279523Y-49712619D01*
X139327142Y-49807857D01*
X139327142Y-49950714D01*
X139279523Y-50045952D01*
X139231904Y-50093571D01*
X139136666Y-50141190D01*
X138755714Y-50141190D01*
X139755714Y-50093571D02*
X140089047Y-50093571D01*
X140231904Y-50617380D02*
X139755714Y-50617380D01*
X139755714Y-49617380D01*
X140231904Y-49617380D01*
X140660476Y-50617380D02*
X140660476Y-49617380D01*
X141231904Y-50617380D01*
X141231904Y-49617380D01*
X141470000Y-50712619D02*
X142231904Y-50712619D01*
X142946190Y-50617380D02*
X142470000Y-50617380D01*
X142470000Y-49617380D01*
X143279523Y-50617380D02*
X143279523Y-49617380D01*
X143755714Y-50617380D02*
X143755714Y-49617380D01*
X144089047Y-50331666D01*
X144422380Y-49617380D01*
X144422380Y-50617380D01*
X144898571Y-50617380D02*
X144898571Y-49617380D01*
X145231904Y-49617380D02*
X145803333Y-49617380D01*
X145517619Y-50617380D02*
X145517619Y-49617380D01*
X146660476Y-50617380D02*
X146089047Y-50617380D01*
X146374761Y-50617380D02*
X146374761Y-49617380D01*
X146279523Y-49760238D01*
X146184285Y-49855476D01*
X146089047Y-49903095D01*
%TO.C,AT_OPEN1*%
X98758809Y-50331666D02*
X99235000Y-50331666D01*
X98663571Y-50617380D02*
X98996904Y-49617380D01*
X99330238Y-50617380D01*
X99520714Y-49617380D02*
X100092142Y-49617380D01*
X99806428Y-50617380D02*
X99806428Y-49617380D01*
X100187380Y-50712619D02*
X100949285Y-50712619D01*
X101377857Y-49617380D02*
X101568333Y-49617380D01*
X101663571Y-49665000D01*
X101758809Y-49760238D01*
X101806428Y-49950714D01*
X101806428Y-50284047D01*
X101758809Y-50474523D01*
X101663571Y-50569761D01*
X101568333Y-50617380D01*
X101377857Y-50617380D01*
X101282619Y-50569761D01*
X101187380Y-50474523D01*
X101139761Y-50284047D01*
X101139761Y-49950714D01*
X101187380Y-49760238D01*
X101282619Y-49665000D01*
X101377857Y-49617380D01*
X102235000Y-50617380D02*
X102235000Y-49617380D01*
X102615952Y-49617380D01*
X102711190Y-49665000D01*
X102758809Y-49712619D01*
X102806428Y-49807857D01*
X102806428Y-49950714D01*
X102758809Y-50045952D01*
X102711190Y-50093571D01*
X102615952Y-50141190D01*
X102235000Y-50141190D01*
X103235000Y-50093571D02*
X103568333Y-50093571D01*
X103711190Y-50617380D02*
X103235000Y-50617380D01*
X103235000Y-49617380D01*
X103711190Y-49617380D01*
X104139761Y-50617380D02*
X104139761Y-49617380D01*
X104711190Y-50617380D01*
X104711190Y-49617380D01*
X105711190Y-50617380D02*
X105139761Y-50617380D01*
X105425476Y-50617380D02*
X105425476Y-49617380D01*
X105330238Y-49760238D01*
X105235000Y-49855476D01*
X105139761Y-49903095D01*
%TO.C,MV_SCREW1*%
X42235952Y-50617380D02*
X42235952Y-49617380D01*
X42569285Y-50331666D01*
X42902619Y-49617380D01*
X42902619Y-50617380D01*
X43235952Y-49617380D02*
X43569285Y-50617380D01*
X43902619Y-49617380D01*
X43997857Y-50712619D02*
X44759761Y-50712619D01*
X44950238Y-50569761D02*
X45093095Y-50617380D01*
X45331190Y-50617380D01*
X45426428Y-50569761D01*
X45474047Y-50522142D01*
X45521666Y-50426904D01*
X45521666Y-50331666D01*
X45474047Y-50236428D01*
X45426428Y-50188809D01*
X45331190Y-50141190D01*
X45140714Y-50093571D01*
X45045476Y-50045952D01*
X44997857Y-49998333D01*
X44950238Y-49903095D01*
X44950238Y-49807857D01*
X44997857Y-49712619D01*
X45045476Y-49665000D01*
X45140714Y-49617380D01*
X45378809Y-49617380D01*
X45521666Y-49665000D01*
X46521666Y-50522142D02*
X46474047Y-50569761D01*
X46331190Y-50617380D01*
X46235952Y-50617380D01*
X46093095Y-50569761D01*
X45997857Y-50474523D01*
X45950238Y-50379285D01*
X45902619Y-50188809D01*
X45902619Y-50045952D01*
X45950238Y-49855476D01*
X45997857Y-49760238D01*
X46093095Y-49665000D01*
X46235952Y-49617380D01*
X46331190Y-49617380D01*
X46474047Y-49665000D01*
X46521666Y-49712619D01*
X47521666Y-50617380D02*
X47188333Y-50141190D01*
X46950238Y-50617380D02*
X46950238Y-49617380D01*
X47331190Y-49617380D01*
X47426428Y-49665000D01*
X47474047Y-49712619D01*
X47521666Y-49807857D01*
X47521666Y-49950714D01*
X47474047Y-50045952D01*
X47426428Y-50093571D01*
X47331190Y-50141190D01*
X46950238Y-50141190D01*
X47950238Y-50093571D02*
X48283571Y-50093571D01*
X48426428Y-50617380D02*
X47950238Y-50617380D01*
X47950238Y-49617380D01*
X48426428Y-49617380D01*
X48759761Y-49617380D02*
X48997857Y-50617380D01*
X49188333Y-49903095D01*
X49378809Y-50617380D01*
X49616904Y-49617380D01*
X50521666Y-50617380D02*
X49950238Y-50617380D01*
X50235952Y-50617380D02*
X50235952Y-49617380D01*
X50140714Y-49760238D01*
X50045476Y-49855476D01*
X49950238Y-49903095D01*
%TO.C,MV_5V_D1*%
X44855238Y-56212380D02*
X44855238Y-55212380D01*
X45188571Y-55926666D01*
X45521904Y-55212380D01*
X45521904Y-56212380D01*
X45855238Y-55212380D02*
X46188571Y-56212380D01*
X46521904Y-55212380D01*
X46617142Y-56307619D02*
X47379047Y-56307619D01*
X48093333Y-55212380D02*
X47617142Y-55212380D01*
X47569523Y-55688571D01*
X47617142Y-55640952D01*
X47712380Y-55593333D01*
X47950476Y-55593333D01*
X48045714Y-55640952D01*
X48093333Y-55688571D01*
X48140952Y-55783809D01*
X48140952Y-56021904D01*
X48093333Y-56117142D01*
X48045714Y-56164761D01*
X47950476Y-56212380D01*
X47712380Y-56212380D01*
X47617142Y-56164761D01*
X47569523Y-56117142D01*
X48426666Y-55212380D02*
X48760000Y-56212380D01*
X49093333Y-55212380D01*
X49188571Y-56307619D02*
X49950476Y-56307619D01*
X50188571Y-56212380D02*
X50188571Y-55212380D01*
X50426666Y-55212380D01*
X50569523Y-55260000D01*
X50664761Y-55355238D01*
X50712380Y-55450476D01*
X50760000Y-55640952D01*
X50760000Y-55783809D01*
X50712380Y-55974285D01*
X50664761Y-56069523D01*
X50569523Y-56164761D01*
X50426666Y-56212380D01*
X50188571Y-56212380D01*
X51712380Y-56212380D02*
X51140952Y-56212380D01*
X51426666Y-56212380D02*
X51426666Y-55212380D01*
X51331428Y-55355238D01*
X51236190Y-55450476D01*
X51140952Y-55498095D01*
X50538095Y-55792380D02*
X50538095Y-54792380D01*
X51109523Y-55792380D02*
X50680952Y-55220952D01*
X51109523Y-54792380D02*
X50538095Y-55363809D01*
%TO.C,MV_5V_C1*%
X54892380Y-58054761D02*
X53892380Y-58054761D01*
X54606666Y-57721428D01*
X53892380Y-57388095D01*
X54892380Y-57388095D01*
X53892380Y-57054761D02*
X54892380Y-56721428D01*
X53892380Y-56388095D01*
X54987619Y-56292857D02*
X54987619Y-55530952D01*
X53892380Y-54816666D02*
X53892380Y-55292857D01*
X54368571Y-55340476D01*
X54320952Y-55292857D01*
X54273333Y-55197619D01*
X54273333Y-54959523D01*
X54320952Y-54864285D01*
X54368571Y-54816666D01*
X54463809Y-54769047D01*
X54701904Y-54769047D01*
X54797142Y-54816666D01*
X54844761Y-54864285D01*
X54892380Y-54959523D01*
X54892380Y-55197619D01*
X54844761Y-55292857D01*
X54797142Y-55340476D01*
X53892380Y-54483333D02*
X54892380Y-54150000D01*
X53892380Y-53816666D01*
X54987619Y-53721428D02*
X54987619Y-52959523D01*
X54797142Y-52150000D02*
X54844761Y-52197619D01*
X54892380Y-52340476D01*
X54892380Y-52435714D01*
X54844761Y-52578571D01*
X54749523Y-52673809D01*
X54654285Y-52721428D01*
X54463809Y-52769047D01*
X54320952Y-52769047D01*
X54130476Y-52721428D01*
X54035238Y-52673809D01*
X53940000Y-52578571D01*
X53892380Y-52435714D01*
X53892380Y-52340476D01*
X53940000Y-52197619D01*
X53987619Y-52150000D01*
X54892380Y-51197619D02*
X54892380Y-51769047D01*
X54892380Y-51483333D02*
X53892380Y-51483333D01*
X54035238Y-51578571D01*
X54130476Y-51673809D01*
X54178095Y-51769047D01*
%TO.C,MV_5V_7805*%
X55356666Y-41267380D02*
X55356666Y-40267380D01*
X55690000Y-40981666D01*
X56023333Y-40267380D01*
X56023333Y-41267380D01*
X56356666Y-40267380D02*
X56690000Y-41267380D01*
X57023333Y-40267380D01*
X57118571Y-41362619D02*
X57880476Y-41362619D01*
X58594761Y-40267380D02*
X58118571Y-40267380D01*
X58070952Y-40743571D01*
X58118571Y-40695952D01*
X58213809Y-40648333D01*
X58451904Y-40648333D01*
X58547142Y-40695952D01*
X58594761Y-40743571D01*
X58642380Y-40838809D01*
X58642380Y-41076904D01*
X58594761Y-41172142D01*
X58547142Y-41219761D01*
X58451904Y-41267380D01*
X58213809Y-41267380D01*
X58118571Y-41219761D01*
X58070952Y-41172142D01*
X58928095Y-40267380D02*
X59261428Y-41267380D01*
X59594761Y-40267380D01*
X59690000Y-41362619D02*
X60451904Y-41362619D01*
X60594761Y-40267380D02*
X61261428Y-40267380D01*
X60832857Y-41267380D01*
X61785238Y-40695952D02*
X61690000Y-40648333D01*
X61642380Y-40600714D01*
X61594761Y-40505476D01*
X61594761Y-40457857D01*
X61642380Y-40362619D01*
X61690000Y-40315000D01*
X61785238Y-40267380D01*
X61975714Y-40267380D01*
X62070952Y-40315000D01*
X62118571Y-40362619D01*
X62166190Y-40457857D01*
X62166190Y-40505476D01*
X62118571Y-40600714D01*
X62070952Y-40648333D01*
X61975714Y-40695952D01*
X61785238Y-40695952D01*
X61690000Y-40743571D01*
X61642380Y-40791190D01*
X61594761Y-40886428D01*
X61594761Y-41076904D01*
X61642380Y-41172142D01*
X61690000Y-41219761D01*
X61785238Y-41267380D01*
X61975714Y-41267380D01*
X62070952Y-41219761D01*
X62118571Y-41172142D01*
X62166190Y-41076904D01*
X62166190Y-40886428D01*
X62118571Y-40791190D01*
X62070952Y-40743571D01*
X61975714Y-40695952D01*
X62785238Y-40267380D02*
X62880476Y-40267380D01*
X62975714Y-40315000D01*
X63023333Y-40362619D01*
X63070952Y-40457857D01*
X63118571Y-40648333D01*
X63118571Y-40886428D01*
X63070952Y-41076904D01*
X63023333Y-41172142D01*
X62975714Y-41219761D01*
X62880476Y-41267380D01*
X62785238Y-41267380D01*
X62690000Y-41219761D01*
X62642380Y-41172142D01*
X62594761Y-41076904D01*
X62547142Y-40886428D01*
X62547142Y-40648333D01*
X62594761Y-40457857D01*
X62642380Y-40362619D01*
X62690000Y-40315000D01*
X62785238Y-40267380D01*
X64023333Y-40267380D02*
X63547142Y-40267380D01*
X63499523Y-40743571D01*
X63547142Y-40695952D01*
X63642380Y-40648333D01*
X63880476Y-40648333D01*
X63975714Y-40695952D01*
X64023333Y-40743571D01*
X64070952Y-40838809D01*
X64070952Y-41076904D01*
X64023333Y-41172142D01*
X63975714Y-41219761D01*
X63880476Y-41267380D01*
X63642380Y-41267380D01*
X63547142Y-41219761D01*
X63499523Y-41172142D01*
%TO.C,MV_12V_D1*%
X44379047Y-63832380D02*
X44379047Y-62832380D01*
X44712380Y-63546666D01*
X45045714Y-62832380D01*
X45045714Y-63832380D01*
X45379047Y-62832380D02*
X45712380Y-63832380D01*
X46045714Y-62832380D01*
X46140952Y-63927619D02*
X46902857Y-63927619D01*
X47664761Y-63832380D02*
X47093333Y-63832380D01*
X47379047Y-63832380D02*
X47379047Y-62832380D01*
X47283809Y-62975238D01*
X47188571Y-63070476D01*
X47093333Y-63118095D01*
X48045714Y-62927619D02*
X48093333Y-62880000D01*
X48188571Y-62832380D01*
X48426666Y-62832380D01*
X48521904Y-62880000D01*
X48569523Y-62927619D01*
X48617142Y-63022857D01*
X48617142Y-63118095D01*
X48569523Y-63260952D01*
X47998095Y-63832380D01*
X48617142Y-63832380D01*
X48902857Y-62832380D02*
X49236190Y-63832380D01*
X49569523Y-62832380D01*
X49664761Y-63927619D02*
X50426666Y-63927619D01*
X50664761Y-63832380D02*
X50664761Y-62832380D01*
X50902857Y-62832380D01*
X51045714Y-62880000D01*
X51140952Y-62975238D01*
X51188571Y-63070476D01*
X51236190Y-63260952D01*
X51236190Y-63403809D01*
X51188571Y-63594285D01*
X51140952Y-63689523D01*
X51045714Y-63784761D01*
X50902857Y-63832380D01*
X50664761Y-63832380D01*
X52188571Y-63832380D02*
X51617142Y-63832380D01*
X51902857Y-63832380D02*
X51902857Y-62832380D01*
X51807619Y-62975238D01*
X51712380Y-63070476D01*
X51617142Y-63118095D01*
X50538095Y-63412380D02*
X50538095Y-62412380D01*
X51109523Y-63412380D02*
X50680952Y-62840952D01*
X51109523Y-62412380D02*
X50538095Y-62983809D01*
%TO.C,MV_12V_7812*%
X54880476Y-62857380D02*
X54880476Y-61857380D01*
X55213809Y-62571666D01*
X55547142Y-61857380D01*
X55547142Y-62857380D01*
X55880476Y-61857380D02*
X56213809Y-62857380D01*
X56547142Y-61857380D01*
X56642380Y-62952619D02*
X57404285Y-62952619D01*
X58166190Y-62857380D02*
X57594761Y-62857380D01*
X57880476Y-62857380D02*
X57880476Y-61857380D01*
X57785238Y-62000238D01*
X57690000Y-62095476D01*
X57594761Y-62143095D01*
X58547142Y-61952619D02*
X58594761Y-61905000D01*
X58690000Y-61857380D01*
X58928095Y-61857380D01*
X59023333Y-61905000D01*
X59070952Y-61952619D01*
X59118571Y-62047857D01*
X59118571Y-62143095D01*
X59070952Y-62285952D01*
X58499523Y-62857380D01*
X59118571Y-62857380D01*
X59404285Y-61857380D02*
X59737619Y-62857380D01*
X60070952Y-61857380D01*
X60166190Y-62952619D02*
X60928095Y-62952619D01*
X61070952Y-61857380D02*
X61737619Y-61857380D01*
X61309047Y-62857380D01*
X62261428Y-62285952D02*
X62166190Y-62238333D01*
X62118571Y-62190714D01*
X62070952Y-62095476D01*
X62070952Y-62047857D01*
X62118571Y-61952619D01*
X62166190Y-61905000D01*
X62261428Y-61857380D01*
X62451904Y-61857380D01*
X62547142Y-61905000D01*
X62594761Y-61952619D01*
X62642380Y-62047857D01*
X62642380Y-62095476D01*
X62594761Y-62190714D01*
X62547142Y-62238333D01*
X62451904Y-62285952D01*
X62261428Y-62285952D01*
X62166190Y-62333571D01*
X62118571Y-62381190D01*
X62070952Y-62476428D01*
X62070952Y-62666904D01*
X62118571Y-62762142D01*
X62166190Y-62809761D01*
X62261428Y-62857380D01*
X62451904Y-62857380D01*
X62547142Y-62809761D01*
X62594761Y-62762142D01*
X62642380Y-62666904D01*
X62642380Y-62476428D01*
X62594761Y-62381190D01*
X62547142Y-62333571D01*
X62451904Y-62285952D01*
X63594761Y-62857380D02*
X63023333Y-62857380D01*
X63309047Y-62857380D02*
X63309047Y-61857380D01*
X63213809Y-62000238D01*
X63118571Y-62095476D01*
X63023333Y-62143095D01*
X63975714Y-61952619D02*
X64023333Y-61905000D01*
X64118571Y-61857380D01*
X64356666Y-61857380D01*
X64451904Y-61905000D01*
X64499523Y-61952619D01*
X64547142Y-62047857D01*
X64547142Y-62143095D01*
X64499523Y-62285952D01*
X63928095Y-62857380D01*
X64547142Y-62857380D01*
%TO.C,AT_XTAL1*%
X107283333Y-57156666D02*
X107759523Y-57156666D01*
X107188095Y-57442380D02*
X107521428Y-56442380D01*
X107854761Y-57442380D01*
X108045238Y-56442380D02*
X108616666Y-56442380D01*
X108330952Y-57442380D02*
X108330952Y-56442380D01*
X108711904Y-57537619D02*
X109473809Y-57537619D01*
X109616666Y-56442380D02*
X110283333Y-57442380D01*
X110283333Y-56442380D02*
X109616666Y-57442380D01*
X110521428Y-56442380D02*
X111092857Y-56442380D01*
X110807142Y-57442380D02*
X110807142Y-56442380D01*
X111378571Y-57156666D02*
X111854761Y-57156666D01*
X111283333Y-57442380D02*
X111616666Y-56442380D01*
X111950000Y-57442380D01*
X112759523Y-57442380D02*
X112283333Y-57442380D01*
X112283333Y-56442380D01*
X113616666Y-57442380D02*
X113045238Y-57442380D01*
X113330952Y-57442380D02*
X113330952Y-56442380D01*
X113235714Y-56585238D01*
X113140476Y-56680476D01*
X113045238Y-56728095D01*
%TO.C,AT_V_C1*%
X72819285Y-68916666D02*
X73295476Y-68916666D01*
X72724047Y-69202380D02*
X73057380Y-68202380D01*
X73390714Y-69202380D01*
X73581190Y-68202380D02*
X74152619Y-68202380D01*
X73866904Y-69202380D02*
X73866904Y-68202380D01*
X74247857Y-69297619D02*
X75009761Y-69297619D01*
X75105000Y-68202380D02*
X75438333Y-69202380D01*
X75771666Y-68202380D01*
X75866904Y-69297619D02*
X76628809Y-69297619D01*
X77438333Y-69107142D02*
X77390714Y-69154761D01*
X77247857Y-69202380D01*
X77152619Y-69202380D01*
X77009761Y-69154761D01*
X76914523Y-69059523D01*
X76866904Y-68964285D01*
X76819285Y-68773809D01*
X76819285Y-68630952D01*
X76866904Y-68440476D01*
X76914523Y-68345238D01*
X77009761Y-68250000D01*
X77152619Y-68202380D01*
X77247857Y-68202380D01*
X77390714Y-68250000D01*
X77438333Y-68297619D01*
X78390714Y-69202380D02*
X77819285Y-69202380D01*
X78105000Y-69202380D02*
X78105000Y-68202380D01*
X78009761Y-68345238D01*
X77914523Y-68440476D01*
X77819285Y-68488095D01*
%TO.C,AT_STOP1*%
X123007857Y-50331666D02*
X123484047Y-50331666D01*
X122912619Y-50617380D02*
X123245952Y-49617380D01*
X123579285Y-50617380D01*
X123769761Y-49617380D02*
X124341190Y-49617380D01*
X124055476Y-50617380D02*
X124055476Y-49617380D01*
X124436428Y-50712619D02*
X125198333Y-50712619D01*
X125388809Y-50569761D02*
X125531666Y-50617380D01*
X125769761Y-50617380D01*
X125865000Y-50569761D01*
X125912619Y-50522142D01*
X125960238Y-50426904D01*
X125960238Y-50331666D01*
X125912619Y-50236428D01*
X125865000Y-50188809D01*
X125769761Y-50141190D01*
X125579285Y-50093571D01*
X125484047Y-50045952D01*
X125436428Y-49998333D01*
X125388809Y-49903095D01*
X125388809Y-49807857D01*
X125436428Y-49712619D01*
X125484047Y-49665000D01*
X125579285Y-49617380D01*
X125817380Y-49617380D01*
X125960238Y-49665000D01*
X126245952Y-49617380D02*
X126817380Y-49617380D01*
X126531666Y-50617380D02*
X126531666Y-49617380D01*
X127341190Y-49617380D02*
X127531666Y-49617380D01*
X127626904Y-49665000D01*
X127722142Y-49760238D01*
X127769761Y-49950714D01*
X127769761Y-50284047D01*
X127722142Y-50474523D01*
X127626904Y-50569761D01*
X127531666Y-50617380D01*
X127341190Y-50617380D01*
X127245952Y-50569761D01*
X127150714Y-50474523D01*
X127103095Y-50284047D01*
X127103095Y-49950714D01*
X127150714Y-49760238D01*
X127245952Y-49665000D01*
X127341190Y-49617380D01*
X128198333Y-50617380D02*
X128198333Y-49617380D01*
X128579285Y-49617380D01*
X128674523Y-49665000D01*
X128722142Y-49712619D01*
X128769761Y-49807857D01*
X128769761Y-49950714D01*
X128722142Y-50045952D01*
X128674523Y-50093571D01*
X128579285Y-50141190D01*
X128198333Y-50141190D01*
X129722142Y-50617380D02*
X129150714Y-50617380D01*
X129436428Y-50617380D02*
X129436428Y-49617380D01*
X129341190Y-49760238D01*
X129245952Y-49855476D01*
X129150714Y-49903095D01*
%TO.C,AT_RES_SW1*%
X70671666Y-41346666D02*
X71147857Y-41346666D01*
X70576428Y-41632380D02*
X70909761Y-40632380D01*
X71243095Y-41632380D01*
X71433571Y-40632380D02*
X72005000Y-40632380D01*
X71719285Y-41632380D02*
X71719285Y-40632380D01*
X72100238Y-41727619D02*
X72862142Y-41727619D01*
X73671666Y-41632380D02*
X73338333Y-41156190D01*
X73100238Y-41632380D02*
X73100238Y-40632380D01*
X73481190Y-40632380D01*
X73576428Y-40680000D01*
X73624047Y-40727619D01*
X73671666Y-40822857D01*
X73671666Y-40965714D01*
X73624047Y-41060952D01*
X73576428Y-41108571D01*
X73481190Y-41156190D01*
X73100238Y-41156190D01*
X74100238Y-41108571D02*
X74433571Y-41108571D01*
X74576428Y-41632380D02*
X74100238Y-41632380D01*
X74100238Y-40632380D01*
X74576428Y-40632380D01*
X74957380Y-41584761D02*
X75100238Y-41632380D01*
X75338333Y-41632380D01*
X75433571Y-41584761D01*
X75481190Y-41537142D01*
X75528809Y-41441904D01*
X75528809Y-41346666D01*
X75481190Y-41251428D01*
X75433571Y-41203809D01*
X75338333Y-41156190D01*
X75147857Y-41108571D01*
X75052619Y-41060952D01*
X75005000Y-41013333D01*
X74957380Y-40918095D01*
X74957380Y-40822857D01*
X75005000Y-40727619D01*
X75052619Y-40680000D01*
X75147857Y-40632380D01*
X75385952Y-40632380D01*
X75528809Y-40680000D01*
X75719285Y-41727619D02*
X76481190Y-41727619D01*
X76671666Y-41584761D02*
X76814523Y-41632380D01*
X77052619Y-41632380D01*
X77147857Y-41584761D01*
X77195476Y-41537142D01*
X77243095Y-41441904D01*
X77243095Y-41346666D01*
X77195476Y-41251428D01*
X77147857Y-41203809D01*
X77052619Y-41156190D01*
X76862142Y-41108571D01*
X76766904Y-41060952D01*
X76719285Y-41013333D01*
X76671666Y-40918095D01*
X76671666Y-40822857D01*
X76719285Y-40727619D01*
X76766904Y-40680000D01*
X76862142Y-40632380D01*
X77100238Y-40632380D01*
X77243095Y-40680000D01*
X77576428Y-40632380D02*
X77814523Y-41632380D01*
X78005000Y-40918095D01*
X78195476Y-41632380D01*
X78433571Y-40632380D01*
X79338333Y-41632380D02*
X78766904Y-41632380D01*
X79052619Y-41632380D02*
X79052619Y-40632380D01*
X78957380Y-40775238D01*
X78862142Y-40870476D01*
X78766904Y-40918095D01*
%TO.C,AT_RES_R1*%
X71779285Y-51586666D02*
X72255476Y-51586666D01*
X71684047Y-51872380D02*
X72017380Y-50872380D01*
X72350714Y-51872380D01*
X72541190Y-50872380D02*
X73112619Y-50872380D01*
X72826904Y-51872380D02*
X72826904Y-50872380D01*
X73207857Y-51967619D02*
X73969761Y-51967619D01*
X74779285Y-51872380D02*
X74445952Y-51396190D01*
X74207857Y-51872380D02*
X74207857Y-50872380D01*
X74588809Y-50872380D01*
X74684047Y-50920000D01*
X74731666Y-50967619D01*
X74779285Y-51062857D01*
X74779285Y-51205714D01*
X74731666Y-51300952D01*
X74684047Y-51348571D01*
X74588809Y-51396190D01*
X74207857Y-51396190D01*
X75207857Y-51348571D02*
X75541190Y-51348571D01*
X75684047Y-51872380D02*
X75207857Y-51872380D01*
X75207857Y-50872380D01*
X75684047Y-50872380D01*
X76065000Y-51824761D02*
X76207857Y-51872380D01*
X76445952Y-51872380D01*
X76541190Y-51824761D01*
X76588809Y-51777142D01*
X76636428Y-51681904D01*
X76636428Y-51586666D01*
X76588809Y-51491428D01*
X76541190Y-51443809D01*
X76445952Y-51396190D01*
X76255476Y-51348571D01*
X76160238Y-51300952D01*
X76112619Y-51253333D01*
X76065000Y-51158095D01*
X76065000Y-51062857D01*
X76112619Y-50967619D01*
X76160238Y-50920000D01*
X76255476Y-50872380D01*
X76493571Y-50872380D01*
X76636428Y-50920000D01*
X76826904Y-51967619D02*
X77588809Y-51967619D01*
X78398333Y-51872380D02*
X78065000Y-51396190D01*
X77826904Y-51872380D02*
X77826904Y-50872380D01*
X78207857Y-50872380D01*
X78303095Y-50920000D01*
X78350714Y-50967619D01*
X78398333Y-51062857D01*
X78398333Y-51205714D01*
X78350714Y-51300952D01*
X78303095Y-51348571D01*
X78207857Y-51396190D01*
X77826904Y-51396190D01*
X79350714Y-51872380D02*
X78779285Y-51872380D01*
X79065000Y-51872380D02*
X79065000Y-50872380D01*
X78969761Y-51015238D01*
X78874523Y-51110476D01*
X78779285Y-51158095D01*
%TO.C,AT_R1*%
X73176666Y-73731190D02*
X73176666Y-73255000D01*
X73462380Y-73826428D02*
X72462380Y-73493095D01*
X73462380Y-73159761D01*
X72462380Y-72969285D02*
X72462380Y-72397857D01*
X73462380Y-72683571D02*
X72462380Y-72683571D01*
X73557619Y-72302619D02*
X73557619Y-71540714D01*
X73462380Y-70731190D02*
X72986190Y-71064523D01*
X73462380Y-71302619D02*
X72462380Y-71302619D01*
X72462380Y-70921666D01*
X72510000Y-70826428D01*
X72557619Y-70778809D01*
X72652857Y-70731190D01*
X72795714Y-70731190D01*
X72890952Y-70778809D01*
X72938571Y-70826428D01*
X72986190Y-70921666D01*
X72986190Y-71302619D01*
X73462380Y-69778809D02*
X73462380Y-70350238D01*
X73462380Y-70064523D02*
X72462380Y-70064523D01*
X72605238Y-70159761D01*
X72700476Y-70255000D01*
X72748095Y-70350238D01*
%TO.C,AT_OPENSW_SCREW1*%
X155230238Y-70701666D02*
X155706428Y-70701666D01*
X155135000Y-70987380D02*
X155468333Y-69987380D01*
X155801666Y-70987380D01*
X155992142Y-69987380D02*
X156563571Y-69987380D01*
X156277857Y-70987380D02*
X156277857Y-69987380D01*
X156658809Y-71082619D02*
X157420714Y-71082619D01*
X157849285Y-69987380D02*
X158039761Y-69987380D01*
X158135000Y-70035000D01*
X158230238Y-70130238D01*
X158277857Y-70320714D01*
X158277857Y-70654047D01*
X158230238Y-70844523D01*
X158135000Y-70939761D01*
X158039761Y-70987380D01*
X157849285Y-70987380D01*
X157754047Y-70939761D01*
X157658809Y-70844523D01*
X157611190Y-70654047D01*
X157611190Y-70320714D01*
X157658809Y-70130238D01*
X157754047Y-70035000D01*
X157849285Y-69987380D01*
X158706428Y-70987380D02*
X158706428Y-69987380D01*
X159087380Y-69987380D01*
X159182619Y-70035000D01*
X159230238Y-70082619D01*
X159277857Y-70177857D01*
X159277857Y-70320714D01*
X159230238Y-70415952D01*
X159182619Y-70463571D01*
X159087380Y-70511190D01*
X158706428Y-70511190D01*
X159706428Y-70463571D02*
X160039761Y-70463571D01*
X160182619Y-70987380D02*
X159706428Y-70987380D01*
X159706428Y-69987380D01*
X160182619Y-69987380D01*
X160611190Y-70987380D02*
X160611190Y-69987380D01*
X161182619Y-70987380D01*
X161182619Y-69987380D01*
X161611190Y-70939761D02*
X161754047Y-70987380D01*
X161992142Y-70987380D01*
X162087380Y-70939761D01*
X162135000Y-70892142D01*
X162182619Y-70796904D01*
X162182619Y-70701666D01*
X162135000Y-70606428D01*
X162087380Y-70558809D01*
X161992142Y-70511190D01*
X161801666Y-70463571D01*
X161706428Y-70415952D01*
X161658809Y-70368333D01*
X161611190Y-70273095D01*
X161611190Y-70177857D01*
X161658809Y-70082619D01*
X161706428Y-70035000D01*
X161801666Y-69987380D01*
X162039761Y-69987380D01*
X162182619Y-70035000D01*
X162515952Y-69987380D02*
X162754047Y-70987380D01*
X162944523Y-70273095D01*
X163135000Y-70987380D01*
X163373095Y-69987380D01*
X163515952Y-71082619D02*
X164277857Y-71082619D01*
X164468333Y-70939761D02*
X164611190Y-70987380D01*
X164849285Y-70987380D01*
X164944523Y-70939761D01*
X164992142Y-70892142D01*
X165039761Y-70796904D01*
X165039761Y-70701666D01*
X164992142Y-70606428D01*
X164944523Y-70558809D01*
X164849285Y-70511190D01*
X164658809Y-70463571D01*
X164563571Y-70415952D01*
X164515952Y-70368333D01*
X164468333Y-70273095D01*
X164468333Y-70177857D01*
X164515952Y-70082619D01*
X164563571Y-70035000D01*
X164658809Y-69987380D01*
X164896904Y-69987380D01*
X165039761Y-70035000D01*
X166039761Y-70892142D02*
X165992142Y-70939761D01*
X165849285Y-70987380D01*
X165754047Y-70987380D01*
X165611190Y-70939761D01*
X165515952Y-70844523D01*
X165468333Y-70749285D01*
X165420714Y-70558809D01*
X165420714Y-70415952D01*
X165468333Y-70225476D01*
X165515952Y-70130238D01*
X165611190Y-70035000D01*
X165754047Y-69987380D01*
X165849285Y-69987380D01*
X165992142Y-70035000D01*
X166039761Y-70082619D01*
X167039761Y-70987380D02*
X166706428Y-70511190D01*
X166468333Y-70987380D02*
X166468333Y-69987380D01*
X166849285Y-69987380D01*
X166944523Y-70035000D01*
X166992142Y-70082619D01*
X167039761Y-70177857D01*
X167039761Y-70320714D01*
X166992142Y-70415952D01*
X166944523Y-70463571D01*
X166849285Y-70511190D01*
X166468333Y-70511190D01*
X167468333Y-70463571D02*
X167801666Y-70463571D01*
X167944523Y-70987380D02*
X167468333Y-70987380D01*
X167468333Y-69987380D01*
X167944523Y-69987380D01*
X168277857Y-69987380D02*
X168515952Y-70987380D01*
X168706428Y-70273095D01*
X168896904Y-70987380D01*
X169135000Y-69987380D01*
X170039761Y-70987380D02*
X169468333Y-70987380D01*
X169754047Y-70987380D02*
X169754047Y-69987380D01*
X169658809Y-70130238D01*
X169563571Y-70225476D01*
X169468333Y-70273095D01*
%TO.C,AT_OPENSW_R1*%
X157155238Y-61141666D02*
X157631428Y-61141666D01*
X157060000Y-61427380D02*
X157393333Y-60427380D01*
X157726666Y-61427380D01*
X157917142Y-60427380D02*
X158488571Y-60427380D01*
X158202857Y-61427380D02*
X158202857Y-60427380D01*
X158583809Y-61522619D02*
X159345714Y-61522619D01*
X159774285Y-60427380D02*
X159964761Y-60427380D01*
X160060000Y-60475000D01*
X160155238Y-60570238D01*
X160202857Y-60760714D01*
X160202857Y-61094047D01*
X160155238Y-61284523D01*
X160060000Y-61379761D01*
X159964761Y-61427380D01*
X159774285Y-61427380D01*
X159679047Y-61379761D01*
X159583809Y-61284523D01*
X159536190Y-61094047D01*
X159536190Y-60760714D01*
X159583809Y-60570238D01*
X159679047Y-60475000D01*
X159774285Y-60427380D01*
X160631428Y-61427380D02*
X160631428Y-60427380D01*
X161012380Y-60427380D01*
X161107619Y-60475000D01*
X161155238Y-60522619D01*
X161202857Y-60617857D01*
X161202857Y-60760714D01*
X161155238Y-60855952D01*
X161107619Y-60903571D01*
X161012380Y-60951190D01*
X160631428Y-60951190D01*
X161631428Y-60903571D02*
X161964761Y-60903571D01*
X162107619Y-61427380D02*
X161631428Y-61427380D01*
X161631428Y-60427380D01*
X162107619Y-60427380D01*
X162536190Y-61427380D02*
X162536190Y-60427380D01*
X163107619Y-61427380D01*
X163107619Y-60427380D01*
X163536190Y-61379761D02*
X163679047Y-61427380D01*
X163917142Y-61427380D01*
X164012380Y-61379761D01*
X164060000Y-61332142D01*
X164107619Y-61236904D01*
X164107619Y-61141666D01*
X164060000Y-61046428D01*
X164012380Y-60998809D01*
X163917142Y-60951190D01*
X163726666Y-60903571D01*
X163631428Y-60855952D01*
X163583809Y-60808333D01*
X163536190Y-60713095D01*
X163536190Y-60617857D01*
X163583809Y-60522619D01*
X163631428Y-60475000D01*
X163726666Y-60427380D01*
X163964761Y-60427380D01*
X164107619Y-60475000D01*
X164440952Y-60427380D02*
X164679047Y-61427380D01*
X164869523Y-60713095D01*
X165060000Y-61427380D01*
X165298095Y-60427380D01*
X165440952Y-61522619D02*
X166202857Y-61522619D01*
X167012380Y-61427380D02*
X166679047Y-60951190D01*
X166440952Y-61427380D02*
X166440952Y-60427380D01*
X166821904Y-60427380D01*
X166917142Y-60475000D01*
X166964761Y-60522619D01*
X167012380Y-60617857D01*
X167012380Y-60760714D01*
X166964761Y-60855952D01*
X166917142Y-60903571D01*
X166821904Y-60951190D01*
X166440952Y-60951190D01*
X167964761Y-61427380D02*
X167393333Y-61427380D01*
X167679047Y-61427380D02*
X167679047Y-60427380D01*
X167583809Y-60570238D01*
X167488571Y-60665476D01*
X167393333Y-60713095D01*
%TO.C,AT_LED1*%
X73341666Y-74588333D02*
X73341666Y-74112142D01*
X73627380Y-74683571D02*
X72627380Y-74350238D01*
X73627380Y-74016904D01*
X72627380Y-73826428D02*
X72627380Y-73255000D01*
X73627380Y-73540714D02*
X72627380Y-73540714D01*
X73722619Y-73159761D02*
X73722619Y-72397857D01*
X73627380Y-71683571D02*
X73627380Y-72159761D01*
X72627380Y-72159761D01*
X73103571Y-71350238D02*
X73103571Y-71016904D01*
X73627380Y-70874047D02*
X73627380Y-71350238D01*
X72627380Y-71350238D01*
X72627380Y-70874047D01*
X73627380Y-70445476D02*
X72627380Y-70445476D01*
X72627380Y-70207380D01*
X72675000Y-70064523D01*
X72770238Y-69969285D01*
X72865476Y-69921666D01*
X73055952Y-69874047D01*
X73198809Y-69874047D01*
X73389285Y-69921666D01*
X73484523Y-69969285D01*
X73579761Y-70064523D01*
X73627380Y-70207380D01*
X73627380Y-70445476D01*
X73627380Y-68921666D02*
X73627380Y-69493095D01*
X73627380Y-69207380D02*
X72627380Y-69207380D01*
X72770238Y-69302619D01*
X72865476Y-69397857D01*
X72913095Y-69493095D01*
%TO.C,AT_INDI_SCREW1*%
X159242857Y-50331666D02*
X159719047Y-50331666D01*
X159147619Y-50617380D02*
X159480952Y-49617380D01*
X159814285Y-50617380D01*
X160004761Y-49617380D02*
X160576190Y-49617380D01*
X160290476Y-50617380D02*
X160290476Y-49617380D01*
X160671428Y-50712619D02*
X161433333Y-50712619D01*
X161671428Y-50617380D02*
X161671428Y-49617380D01*
X162147619Y-50617380D02*
X162147619Y-49617380D01*
X162719047Y-50617380D01*
X162719047Y-49617380D01*
X163195238Y-50617380D02*
X163195238Y-49617380D01*
X163433333Y-49617380D01*
X163576190Y-49665000D01*
X163671428Y-49760238D01*
X163719047Y-49855476D01*
X163766666Y-50045952D01*
X163766666Y-50188809D01*
X163719047Y-50379285D01*
X163671428Y-50474523D01*
X163576190Y-50569761D01*
X163433333Y-50617380D01*
X163195238Y-50617380D01*
X164195238Y-50617380D02*
X164195238Y-49617380D01*
X164433333Y-50712619D02*
X165195238Y-50712619D01*
X165385714Y-50569761D02*
X165528571Y-50617380D01*
X165766666Y-50617380D01*
X165861904Y-50569761D01*
X165909523Y-50522142D01*
X165957142Y-50426904D01*
X165957142Y-50331666D01*
X165909523Y-50236428D01*
X165861904Y-50188809D01*
X165766666Y-50141190D01*
X165576190Y-50093571D01*
X165480952Y-50045952D01*
X165433333Y-49998333D01*
X165385714Y-49903095D01*
X165385714Y-49807857D01*
X165433333Y-49712619D01*
X165480952Y-49665000D01*
X165576190Y-49617380D01*
X165814285Y-49617380D01*
X165957142Y-49665000D01*
X166957142Y-50522142D02*
X166909523Y-50569761D01*
X166766666Y-50617380D01*
X166671428Y-50617380D01*
X166528571Y-50569761D01*
X166433333Y-50474523D01*
X166385714Y-50379285D01*
X166338095Y-50188809D01*
X166338095Y-50045952D01*
X166385714Y-49855476D01*
X166433333Y-49760238D01*
X166528571Y-49665000D01*
X166671428Y-49617380D01*
X166766666Y-49617380D01*
X166909523Y-49665000D01*
X166957142Y-49712619D01*
X167957142Y-50617380D02*
X167623809Y-50141190D01*
X167385714Y-50617380D02*
X167385714Y-49617380D01*
X167766666Y-49617380D01*
X167861904Y-49665000D01*
X167909523Y-49712619D01*
X167957142Y-49807857D01*
X167957142Y-49950714D01*
X167909523Y-50045952D01*
X167861904Y-50093571D01*
X167766666Y-50141190D01*
X167385714Y-50141190D01*
X168385714Y-50093571D02*
X168719047Y-50093571D01*
X168861904Y-50617380D02*
X168385714Y-50617380D01*
X168385714Y-49617380D01*
X168861904Y-49617380D01*
X169195238Y-49617380D02*
X169433333Y-50617380D01*
X169623809Y-49903095D01*
X169814285Y-50617380D01*
X170052380Y-49617380D01*
X170957142Y-50617380D02*
X170385714Y-50617380D01*
X170671428Y-50617380D02*
X170671428Y-49617380D01*
X170576190Y-49760238D01*
X170480952Y-49855476D01*
X170385714Y-49903095D01*
%TO.C,AT_CLOSESW_SCREW1*%
X137653095Y-70651666D02*
X138129285Y-70651666D01*
X137557857Y-70937380D02*
X137891190Y-69937380D01*
X138224523Y-70937380D01*
X138415000Y-69937380D02*
X138986428Y-69937380D01*
X138700714Y-70937380D02*
X138700714Y-69937380D01*
X139081666Y-71032619D02*
X139843571Y-71032619D01*
X140653095Y-70842142D02*
X140605476Y-70889761D01*
X140462619Y-70937380D01*
X140367380Y-70937380D01*
X140224523Y-70889761D01*
X140129285Y-70794523D01*
X140081666Y-70699285D01*
X140034047Y-70508809D01*
X140034047Y-70365952D01*
X140081666Y-70175476D01*
X140129285Y-70080238D01*
X140224523Y-69985000D01*
X140367380Y-69937380D01*
X140462619Y-69937380D01*
X140605476Y-69985000D01*
X140653095Y-70032619D01*
X141557857Y-70937380D02*
X141081666Y-70937380D01*
X141081666Y-69937380D01*
X142081666Y-69937380D02*
X142272142Y-69937380D01*
X142367380Y-69985000D01*
X142462619Y-70080238D01*
X142510238Y-70270714D01*
X142510238Y-70604047D01*
X142462619Y-70794523D01*
X142367380Y-70889761D01*
X142272142Y-70937380D01*
X142081666Y-70937380D01*
X141986428Y-70889761D01*
X141891190Y-70794523D01*
X141843571Y-70604047D01*
X141843571Y-70270714D01*
X141891190Y-70080238D01*
X141986428Y-69985000D01*
X142081666Y-69937380D01*
X142891190Y-70889761D02*
X143034047Y-70937380D01*
X143272142Y-70937380D01*
X143367380Y-70889761D01*
X143415000Y-70842142D01*
X143462619Y-70746904D01*
X143462619Y-70651666D01*
X143415000Y-70556428D01*
X143367380Y-70508809D01*
X143272142Y-70461190D01*
X143081666Y-70413571D01*
X142986428Y-70365952D01*
X142938809Y-70318333D01*
X142891190Y-70223095D01*
X142891190Y-70127857D01*
X142938809Y-70032619D01*
X142986428Y-69985000D01*
X143081666Y-69937380D01*
X143319761Y-69937380D01*
X143462619Y-69985000D01*
X143891190Y-70413571D02*
X144224523Y-70413571D01*
X144367380Y-70937380D02*
X143891190Y-70937380D01*
X143891190Y-69937380D01*
X144367380Y-69937380D01*
X144748333Y-70889761D02*
X144891190Y-70937380D01*
X145129285Y-70937380D01*
X145224523Y-70889761D01*
X145272142Y-70842142D01*
X145319761Y-70746904D01*
X145319761Y-70651666D01*
X145272142Y-70556428D01*
X145224523Y-70508809D01*
X145129285Y-70461190D01*
X144938809Y-70413571D01*
X144843571Y-70365952D01*
X144795952Y-70318333D01*
X144748333Y-70223095D01*
X144748333Y-70127857D01*
X144795952Y-70032619D01*
X144843571Y-69985000D01*
X144938809Y-69937380D01*
X145176904Y-69937380D01*
X145319761Y-69985000D01*
X145653095Y-69937380D02*
X145891190Y-70937380D01*
X146081666Y-70223095D01*
X146272142Y-70937380D01*
X146510238Y-69937380D01*
X146653095Y-71032619D02*
X147415000Y-71032619D01*
X147605476Y-70889761D02*
X147748333Y-70937380D01*
X147986428Y-70937380D01*
X148081666Y-70889761D01*
X148129285Y-70842142D01*
X148176904Y-70746904D01*
X148176904Y-70651666D01*
X148129285Y-70556428D01*
X148081666Y-70508809D01*
X147986428Y-70461190D01*
X147795952Y-70413571D01*
X147700714Y-70365952D01*
X147653095Y-70318333D01*
X147605476Y-70223095D01*
X147605476Y-70127857D01*
X147653095Y-70032619D01*
X147700714Y-69985000D01*
X147795952Y-69937380D01*
X148034047Y-69937380D01*
X148176904Y-69985000D01*
X149176904Y-70842142D02*
X149129285Y-70889761D01*
X148986428Y-70937380D01*
X148891190Y-70937380D01*
X148748333Y-70889761D01*
X148653095Y-70794523D01*
X148605476Y-70699285D01*
X148557857Y-70508809D01*
X148557857Y-70365952D01*
X148605476Y-70175476D01*
X148653095Y-70080238D01*
X148748333Y-69985000D01*
X148891190Y-69937380D01*
X148986428Y-69937380D01*
X149129285Y-69985000D01*
X149176904Y-70032619D01*
X150176904Y-70937380D02*
X149843571Y-70461190D01*
X149605476Y-70937380D02*
X149605476Y-69937380D01*
X149986428Y-69937380D01*
X150081666Y-69985000D01*
X150129285Y-70032619D01*
X150176904Y-70127857D01*
X150176904Y-70270714D01*
X150129285Y-70365952D01*
X150081666Y-70413571D01*
X149986428Y-70461190D01*
X149605476Y-70461190D01*
X150605476Y-70413571D02*
X150938809Y-70413571D01*
X151081666Y-70937380D02*
X150605476Y-70937380D01*
X150605476Y-69937380D01*
X151081666Y-69937380D01*
X151415000Y-69937380D02*
X151653095Y-70937380D01*
X151843571Y-70223095D01*
X152034047Y-70937380D01*
X152272142Y-69937380D01*
X153176904Y-70937380D02*
X152605476Y-70937380D01*
X152891190Y-70937380D02*
X152891190Y-69937380D01*
X152795952Y-70080238D01*
X152700714Y-70175476D01*
X152605476Y-70223095D01*
%TO.C,AT_CLOSESW_R1*%
X139653095Y-61141666D02*
X140129285Y-61141666D01*
X139557857Y-61427380D02*
X139891190Y-60427380D01*
X140224523Y-61427380D01*
X140415000Y-60427380D02*
X140986428Y-60427380D01*
X140700714Y-61427380D02*
X140700714Y-60427380D01*
X141081666Y-61522619D02*
X141843571Y-61522619D01*
X142653095Y-61332142D02*
X142605476Y-61379761D01*
X142462619Y-61427380D01*
X142367380Y-61427380D01*
X142224523Y-61379761D01*
X142129285Y-61284523D01*
X142081666Y-61189285D01*
X142034047Y-60998809D01*
X142034047Y-60855952D01*
X142081666Y-60665476D01*
X142129285Y-60570238D01*
X142224523Y-60475000D01*
X142367380Y-60427380D01*
X142462619Y-60427380D01*
X142605476Y-60475000D01*
X142653095Y-60522619D01*
X143557857Y-61427380D02*
X143081666Y-61427380D01*
X143081666Y-60427380D01*
X144081666Y-60427380D02*
X144272142Y-60427380D01*
X144367380Y-60475000D01*
X144462619Y-60570238D01*
X144510238Y-60760714D01*
X144510238Y-61094047D01*
X144462619Y-61284523D01*
X144367380Y-61379761D01*
X144272142Y-61427380D01*
X144081666Y-61427380D01*
X143986428Y-61379761D01*
X143891190Y-61284523D01*
X143843571Y-61094047D01*
X143843571Y-60760714D01*
X143891190Y-60570238D01*
X143986428Y-60475000D01*
X144081666Y-60427380D01*
X144891190Y-61379761D02*
X145034047Y-61427380D01*
X145272142Y-61427380D01*
X145367380Y-61379761D01*
X145415000Y-61332142D01*
X145462619Y-61236904D01*
X145462619Y-61141666D01*
X145415000Y-61046428D01*
X145367380Y-60998809D01*
X145272142Y-60951190D01*
X145081666Y-60903571D01*
X144986428Y-60855952D01*
X144938809Y-60808333D01*
X144891190Y-60713095D01*
X144891190Y-60617857D01*
X144938809Y-60522619D01*
X144986428Y-60475000D01*
X145081666Y-60427380D01*
X145319761Y-60427380D01*
X145462619Y-60475000D01*
X145891190Y-60903571D02*
X146224523Y-60903571D01*
X146367380Y-61427380D02*
X145891190Y-61427380D01*
X145891190Y-60427380D01*
X146367380Y-60427380D01*
X146748333Y-61379761D02*
X146891190Y-61427380D01*
X147129285Y-61427380D01*
X147224523Y-61379761D01*
X147272142Y-61332142D01*
X147319761Y-61236904D01*
X147319761Y-61141666D01*
X147272142Y-61046428D01*
X147224523Y-60998809D01*
X147129285Y-60951190D01*
X146938809Y-60903571D01*
X146843571Y-60855952D01*
X146795952Y-60808333D01*
X146748333Y-60713095D01*
X146748333Y-60617857D01*
X146795952Y-60522619D01*
X146843571Y-60475000D01*
X146938809Y-60427380D01*
X147176904Y-60427380D01*
X147319761Y-60475000D01*
X147653095Y-60427380D02*
X147891190Y-61427380D01*
X148081666Y-60713095D01*
X148272142Y-61427380D01*
X148510238Y-60427380D01*
X148653095Y-61522619D02*
X149415000Y-61522619D01*
X150224523Y-61427380D02*
X149891190Y-60951190D01*
X149653095Y-61427380D02*
X149653095Y-60427380D01*
X150034047Y-60427380D01*
X150129285Y-60475000D01*
X150176904Y-60522619D01*
X150224523Y-60617857D01*
X150224523Y-60760714D01*
X150176904Y-60855952D01*
X150129285Y-60903571D01*
X150034047Y-60951190D01*
X149653095Y-60951190D01*
X151176904Y-61427380D02*
X150605476Y-61427380D01*
X150891190Y-61427380D02*
X150891190Y-60427380D01*
X150795952Y-60570238D01*
X150700714Y-60665476D01*
X150605476Y-60713095D01*
%TO.C,AT_CLOSE_LIMIT1*%
X146987380Y-50331666D02*
X147463571Y-50331666D01*
X146892142Y-50617380D02*
X147225476Y-49617380D01*
X147558809Y-50617380D01*
X147749285Y-49617380D02*
X148320714Y-49617380D01*
X148035000Y-50617380D02*
X148035000Y-49617380D01*
X148415952Y-50712619D02*
X149177857Y-50712619D01*
X149987380Y-50522142D02*
X149939761Y-50569761D01*
X149796904Y-50617380D01*
X149701666Y-50617380D01*
X149558809Y-50569761D01*
X149463571Y-50474523D01*
X149415952Y-50379285D01*
X149368333Y-50188809D01*
X149368333Y-50045952D01*
X149415952Y-49855476D01*
X149463571Y-49760238D01*
X149558809Y-49665000D01*
X149701666Y-49617380D01*
X149796904Y-49617380D01*
X149939761Y-49665000D01*
X149987380Y-49712619D01*
X150892142Y-50617380D02*
X150415952Y-50617380D01*
X150415952Y-49617380D01*
X151415952Y-49617380D02*
X151606428Y-49617380D01*
X151701666Y-49665000D01*
X151796904Y-49760238D01*
X151844523Y-49950714D01*
X151844523Y-50284047D01*
X151796904Y-50474523D01*
X151701666Y-50569761D01*
X151606428Y-50617380D01*
X151415952Y-50617380D01*
X151320714Y-50569761D01*
X151225476Y-50474523D01*
X151177857Y-50284047D01*
X151177857Y-49950714D01*
X151225476Y-49760238D01*
X151320714Y-49665000D01*
X151415952Y-49617380D01*
X152225476Y-50569761D02*
X152368333Y-50617380D01*
X152606428Y-50617380D01*
X152701666Y-50569761D01*
X152749285Y-50522142D01*
X152796904Y-50426904D01*
X152796904Y-50331666D01*
X152749285Y-50236428D01*
X152701666Y-50188809D01*
X152606428Y-50141190D01*
X152415952Y-50093571D01*
X152320714Y-50045952D01*
X152273095Y-49998333D01*
X152225476Y-49903095D01*
X152225476Y-49807857D01*
X152273095Y-49712619D01*
X152320714Y-49665000D01*
X152415952Y-49617380D01*
X152654047Y-49617380D01*
X152796904Y-49665000D01*
X153225476Y-50093571D02*
X153558809Y-50093571D01*
X153701666Y-50617380D02*
X153225476Y-50617380D01*
X153225476Y-49617380D01*
X153701666Y-49617380D01*
X153892142Y-50712619D02*
X154654047Y-50712619D01*
X155368333Y-50617380D02*
X154892142Y-50617380D01*
X154892142Y-49617380D01*
X155701666Y-50617380D02*
X155701666Y-49617380D01*
X156177857Y-50617380D02*
X156177857Y-49617380D01*
X156511190Y-50331666D01*
X156844523Y-49617380D01*
X156844523Y-50617380D01*
X157320714Y-50617380D02*
X157320714Y-49617380D01*
X157654047Y-49617380D02*
X158225476Y-49617380D01*
X157939761Y-50617380D02*
X157939761Y-49617380D01*
X159082619Y-50617380D02*
X158511190Y-50617380D01*
X158796904Y-50617380D02*
X158796904Y-49617380D01*
X158701666Y-49760238D01*
X158606428Y-49855476D01*
X158511190Y-49903095D01*
%TO.C,AT_CLOSE1*%
X110466666Y-50331666D02*
X110942857Y-50331666D01*
X110371428Y-50617380D02*
X110704761Y-49617380D01*
X111038095Y-50617380D01*
X111228571Y-49617380D02*
X111800000Y-49617380D01*
X111514285Y-50617380D02*
X111514285Y-49617380D01*
X111895238Y-50712619D02*
X112657142Y-50712619D01*
X113466666Y-50522142D02*
X113419047Y-50569761D01*
X113276190Y-50617380D01*
X113180952Y-50617380D01*
X113038095Y-50569761D01*
X112942857Y-50474523D01*
X112895238Y-50379285D01*
X112847619Y-50188809D01*
X112847619Y-50045952D01*
X112895238Y-49855476D01*
X112942857Y-49760238D01*
X113038095Y-49665000D01*
X113180952Y-49617380D01*
X113276190Y-49617380D01*
X113419047Y-49665000D01*
X113466666Y-49712619D01*
X114371428Y-50617380D02*
X113895238Y-50617380D01*
X113895238Y-49617380D01*
X114895238Y-49617380D02*
X115085714Y-49617380D01*
X115180952Y-49665000D01*
X115276190Y-49760238D01*
X115323809Y-49950714D01*
X115323809Y-50284047D01*
X115276190Y-50474523D01*
X115180952Y-50569761D01*
X115085714Y-50617380D01*
X114895238Y-50617380D01*
X114800000Y-50569761D01*
X114704761Y-50474523D01*
X114657142Y-50284047D01*
X114657142Y-49950714D01*
X114704761Y-49760238D01*
X114800000Y-49665000D01*
X114895238Y-49617380D01*
X115704761Y-50569761D02*
X115847619Y-50617380D01*
X116085714Y-50617380D01*
X116180952Y-50569761D01*
X116228571Y-50522142D01*
X116276190Y-50426904D01*
X116276190Y-50331666D01*
X116228571Y-50236428D01*
X116180952Y-50188809D01*
X116085714Y-50141190D01*
X115895238Y-50093571D01*
X115800000Y-50045952D01*
X115752380Y-49998333D01*
X115704761Y-49903095D01*
X115704761Y-49807857D01*
X115752380Y-49712619D01*
X115800000Y-49665000D01*
X115895238Y-49617380D01*
X116133333Y-49617380D01*
X116276190Y-49665000D01*
X116704761Y-50093571D02*
X117038095Y-50093571D01*
X117180952Y-50617380D02*
X116704761Y-50617380D01*
X116704761Y-49617380D01*
X117180952Y-49617380D01*
X118133333Y-50617380D02*
X117561904Y-50617380D01*
X117847619Y-50617380D02*
X117847619Y-49617380D01*
X117752380Y-49760238D01*
X117657142Y-49855476D01*
X117561904Y-49903095D01*
%TD*%
M02*
