%TF.GenerationSoftware,KiCad,Pcbnew,5.99.0+really5.1.10+dfsg1-1*%
%TF.CreationDate,2022-04-08T20:52:09+02:00*%
%TF.ProjectId,board,626f6172-642e-46b6-9963-61645f706362,rev?*%
%TF.SameCoordinates,Original*%
%TF.FileFunction,Legend,Bot*%
%TF.FilePolarity,Positive*%
%FSLAX46Y46*%
G04 Gerber Fmt 4.6, Leading zero omitted, Abs format (unit mm)*
G04 Created by KiCad (PCBNEW 5.99.0+really5.1.10+dfsg1-1) date 2022-04-08 20:52:09*
%MOMM*%
%LPD*%
G01*
G04 APERTURE LIST*
%ADD10C,0.120000*%
%ADD11C,0.150000*%
G04 APERTURE END LIST*
D10*
%TO.C,AT_UART_SCREW1*%
X85090000Y-41275000D02*
X95250000Y-41275000D01*
X85090000Y-48895000D02*
X85090000Y-41275000D01*
X95250000Y-48895000D02*
X85090000Y-48895000D01*
X95250000Y-41275000D02*
X95250000Y-48895000D01*
X95250000Y-42545000D02*
X85090000Y-42545000D01*
%TO.C,AT_RF1*%
X184785000Y-80645000D02*
X182245000Y-80645000D01*
X184785000Y-52705000D02*
X182245000Y-52705000D01*
X182245000Y-52705000D02*
X182245000Y-80645000D01*
X189865000Y-52705000D02*
X189865000Y-55245000D01*
X187325000Y-52705000D02*
X189865000Y-52705000D01*
X189865000Y-80645000D02*
X187325000Y-80645000D01*
X189865000Y-60325000D02*
X189865000Y-80645000D01*
X189865000Y-55245000D02*
X189865000Y-60325000D01*
X187325000Y-80645000D02*
X184785000Y-80645000D01*
X184785000Y-52705000D02*
X187325000Y-52705000D01*
%TO.C,AT_OBST_SCREW1*%
X176530000Y-41275000D02*
X191770000Y-41275000D01*
X176530000Y-48895000D02*
X191770000Y-48895000D01*
X176530000Y-42545000D02*
X191770000Y-42545000D01*
X191770000Y-41275000D02*
X191770000Y-48895000D01*
X176530000Y-41275000D02*
X176530000Y-48895000D01*
%TO.C,AT_328P1*%
X86300000Y-72500000D02*
X86300000Y-70850000D01*
X121980000Y-72500000D02*
X86300000Y-72500000D01*
X121980000Y-67200000D02*
X121980000Y-72500000D01*
X86300000Y-67200000D02*
X121980000Y-67200000D01*
X86300000Y-68850000D02*
X86300000Y-67200000D01*
X86300000Y-70850000D02*
G75*
G03*
X86300000Y-68850000I0J1000000D01*
G01*
%TO.C,AT_UART_SCREW1*%
D11*
X96360476Y-50331666D02*
X95884285Y-50331666D01*
X96455714Y-50617380D02*
X96122380Y-49617380D01*
X95789047Y-50617380D01*
X95598571Y-49617380D02*
X95027142Y-49617380D01*
X95312857Y-50617380D02*
X95312857Y-49617380D01*
X94931904Y-50712619D02*
X94170000Y-50712619D01*
X93931904Y-49617380D02*
X93931904Y-50426904D01*
X93884285Y-50522142D01*
X93836666Y-50569761D01*
X93741428Y-50617380D01*
X93550952Y-50617380D01*
X93455714Y-50569761D01*
X93408095Y-50522142D01*
X93360476Y-50426904D01*
X93360476Y-49617380D01*
X92931904Y-50331666D02*
X92455714Y-50331666D01*
X93027142Y-50617380D02*
X92693809Y-49617380D01*
X92360476Y-50617380D01*
X91455714Y-50617380D02*
X91789047Y-50141190D01*
X92027142Y-50617380D02*
X92027142Y-49617380D01*
X91646190Y-49617380D01*
X91550952Y-49665000D01*
X91503333Y-49712619D01*
X91455714Y-49807857D01*
X91455714Y-49950714D01*
X91503333Y-50045952D01*
X91550952Y-50093571D01*
X91646190Y-50141190D01*
X92027142Y-50141190D01*
X91170000Y-49617380D02*
X90598571Y-49617380D01*
X90884285Y-50617380D02*
X90884285Y-49617380D01*
X90503333Y-50712619D02*
X89741428Y-50712619D01*
X89550952Y-50569761D02*
X89408095Y-50617380D01*
X89170000Y-50617380D01*
X89074761Y-50569761D01*
X89027142Y-50522142D01*
X88979523Y-50426904D01*
X88979523Y-50331666D01*
X89027142Y-50236428D01*
X89074761Y-50188809D01*
X89170000Y-50141190D01*
X89360476Y-50093571D01*
X89455714Y-50045952D01*
X89503333Y-49998333D01*
X89550952Y-49903095D01*
X89550952Y-49807857D01*
X89503333Y-49712619D01*
X89455714Y-49665000D01*
X89360476Y-49617380D01*
X89122380Y-49617380D01*
X88979523Y-49665000D01*
X87979523Y-50522142D02*
X88027142Y-50569761D01*
X88170000Y-50617380D01*
X88265238Y-50617380D01*
X88408095Y-50569761D01*
X88503333Y-50474523D01*
X88550952Y-50379285D01*
X88598571Y-50188809D01*
X88598571Y-50045952D01*
X88550952Y-49855476D01*
X88503333Y-49760238D01*
X88408095Y-49665000D01*
X88265238Y-49617380D01*
X88170000Y-49617380D01*
X88027142Y-49665000D01*
X87979523Y-49712619D01*
X86979523Y-50617380D02*
X87312857Y-50141190D01*
X87550952Y-50617380D02*
X87550952Y-49617380D01*
X87170000Y-49617380D01*
X87074761Y-49665000D01*
X87027142Y-49712619D01*
X86979523Y-49807857D01*
X86979523Y-49950714D01*
X87027142Y-50045952D01*
X87074761Y-50093571D01*
X87170000Y-50141190D01*
X87550952Y-50141190D01*
X86550952Y-50093571D02*
X86217619Y-50093571D01*
X86074761Y-50617380D02*
X86550952Y-50617380D01*
X86550952Y-49617380D01*
X86074761Y-49617380D01*
X85741428Y-49617380D02*
X85503333Y-50617380D01*
X85312857Y-49903095D01*
X85122380Y-50617380D01*
X84884285Y-49617380D01*
X83979523Y-50617380D02*
X84550952Y-50617380D01*
X84265238Y-50617380D02*
X84265238Y-49617380D01*
X84360476Y-49760238D01*
X84455714Y-49855476D01*
X84550952Y-49903095D01*
%TO.C,AT_RF1*%
X180371666Y-68080238D02*
X180371666Y-68556428D01*
X180657380Y-67985000D02*
X179657380Y-68318333D01*
X180657380Y-68651666D01*
X179657380Y-68842142D02*
X179657380Y-69413571D01*
X180657380Y-69127857D02*
X179657380Y-69127857D01*
X180752619Y-69508809D02*
X180752619Y-70270714D01*
X180657380Y-71080238D02*
X180181190Y-70746904D01*
X180657380Y-70508809D02*
X179657380Y-70508809D01*
X179657380Y-70889761D01*
X179705000Y-70985000D01*
X179752619Y-71032619D01*
X179847857Y-71080238D01*
X179990714Y-71080238D01*
X180085952Y-71032619D01*
X180133571Y-70985000D01*
X180181190Y-70889761D01*
X180181190Y-70508809D01*
X180133571Y-71842142D02*
X180133571Y-71508809D01*
X180657380Y-71508809D02*
X179657380Y-71508809D01*
X179657380Y-71985000D01*
X180657380Y-72889761D02*
X180657380Y-72318333D01*
X180657380Y-72604047D02*
X179657380Y-72604047D01*
X179800238Y-72508809D01*
X179895476Y-72413571D01*
X179943095Y-72318333D01*
%TO.C,AT_OBST_SCREW1*%
X190358095Y-49901666D02*
X189881904Y-49901666D01*
X190453333Y-50187380D02*
X190120000Y-49187380D01*
X189786666Y-50187380D01*
X189596190Y-49187380D02*
X189024761Y-49187380D01*
X189310476Y-50187380D02*
X189310476Y-49187380D01*
X188929523Y-50282619D02*
X188167619Y-50282619D01*
X187739047Y-49187380D02*
X187548571Y-49187380D01*
X187453333Y-49235000D01*
X187358095Y-49330238D01*
X187310476Y-49520714D01*
X187310476Y-49854047D01*
X187358095Y-50044523D01*
X187453333Y-50139761D01*
X187548571Y-50187380D01*
X187739047Y-50187380D01*
X187834285Y-50139761D01*
X187929523Y-50044523D01*
X187977142Y-49854047D01*
X187977142Y-49520714D01*
X187929523Y-49330238D01*
X187834285Y-49235000D01*
X187739047Y-49187380D01*
X186548571Y-49663571D02*
X186405714Y-49711190D01*
X186358095Y-49758809D01*
X186310476Y-49854047D01*
X186310476Y-49996904D01*
X186358095Y-50092142D01*
X186405714Y-50139761D01*
X186500952Y-50187380D01*
X186881904Y-50187380D01*
X186881904Y-49187380D01*
X186548571Y-49187380D01*
X186453333Y-49235000D01*
X186405714Y-49282619D01*
X186358095Y-49377857D01*
X186358095Y-49473095D01*
X186405714Y-49568333D01*
X186453333Y-49615952D01*
X186548571Y-49663571D01*
X186881904Y-49663571D01*
X185929523Y-50139761D02*
X185786666Y-50187380D01*
X185548571Y-50187380D01*
X185453333Y-50139761D01*
X185405714Y-50092142D01*
X185358095Y-49996904D01*
X185358095Y-49901666D01*
X185405714Y-49806428D01*
X185453333Y-49758809D01*
X185548571Y-49711190D01*
X185739047Y-49663571D01*
X185834285Y-49615952D01*
X185881904Y-49568333D01*
X185929523Y-49473095D01*
X185929523Y-49377857D01*
X185881904Y-49282619D01*
X185834285Y-49235000D01*
X185739047Y-49187380D01*
X185500952Y-49187380D01*
X185358095Y-49235000D01*
X185072380Y-49187380D02*
X184500952Y-49187380D01*
X184786666Y-50187380D02*
X184786666Y-49187380D01*
X184405714Y-50282619D02*
X183643809Y-50282619D01*
X183453333Y-50139761D02*
X183310476Y-50187380D01*
X183072380Y-50187380D01*
X182977142Y-50139761D01*
X182929523Y-50092142D01*
X182881904Y-49996904D01*
X182881904Y-49901666D01*
X182929523Y-49806428D01*
X182977142Y-49758809D01*
X183072380Y-49711190D01*
X183262857Y-49663571D01*
X183358095Y-49615952D01*
X183405714Y-49568333D01*
X183453333Y-49473095D01*
X183453333Y-49377857D01*
X183405714Y-49282619D01*
X183358095Y-49235000D01*
X183262857Y-49187380D01*
X183024761Y-49187380D01*
X182881904Y-49235000D01*
X181881904Y-50092142D02*
X181929523Y-50139761D01*
X182072380Y-50187380D01*
X182167619Y-50187380D01*
X182310476Y-50139761D01*
X182405714Y-50044523D01*
X182453333Y-49949285D01*
X182500952Y-49758809D01*
X182500952Y-49615952D01*
X182453333Y-49425476D01*
X182405714Y-49330238D01*
X182310476Y-49235000D01*
X182167619Y-49187380D01*
X182072380Y-49187380D01*
X181929523Y-49235000D01*
X181881904Y-49282619D01*
X180881904Y-50187380D02*
X181215238Y-49711190D01*
X181453333Y-50187380D02*
X181453333Y-49187380D01*
X181072380Y-49187380D01*
X180977142Y-49235000D01*
X180929523Y-49282619D01*
X180881904Y-49377857D01*
X180881904Y-49520714D01*
X180929523Y-49615952D01*
X180977142Y-49663571D01*
X181072380Y-49711190D01*
X181453333Y-49711190D01*
X180453333Y-49663571D02*
X180120000Y-49663571D01*
X179977142Y-50187380D02*
X180453333Y-50187380D01*
X180453333Y-49187380D01*
X179977142Y-49187380D01*
X179643809Y-49187380D02*
X179405714Y-50187380D01*
X179215238Y-49473095D01*
X179024761Y-50187380D01*
X178786666Y-49187380D01*
X177881904Y-50187380D02*
X178453333Y-50187380D01*
X178167619Y-50187380D02*
X178167619Y-49187380D01*
X178262857Y-49330238D01*
X178358095Y-49425476D01*
X178453333Y-49473095D01*
%TO.C,AT_328P1*%
X85466666Y-66445238D02*
X85466666Y-66921428D01*
X85752380Y-66350000D02*
X84752380Y-66683333D01*
X85752380Y-67016666D01*
X84752380Y-67207142D02*
X84752380Y-67778571D01*
X85752380Y-67492857D02*
X84752380Y-67492857D01*
X85847619Y-67873809D02*
X85847619Y-68635714D01*
X84752380Y-68778571D02*
X84752380Y-69397619D01*
X85133333Y-69064285D01*
X85133333Y-69207142D01*
X85180952Y-69302380D01*
X85228571Y-69350000D01*
X85323809Y-69397619D01*
X85561904Y-69397619D01*
X85657142Y-69350000D01*
X85704761Y-69302380D01*
X85752380Y-69207142D01*
X85752380Y-68921428D01*
X85704761Y-68826190D01*
X85657142Y-68778571D01*
X84847619Y-69778571D02*
X84800000Y-69826190D01*
X84752380Y-69921428D01*
X84752380Y-70159523D01*
X84800000Y-70254761D01*
X84847619Y-70302380D01*
X84942857Y-70350000D01*
X85038095Y-70350000D01*
X85180952Y-70302380D01*
X85752380Y-69730952D01*
X85752380Y-70350000D01*
X85180952Y-70921428D02*
X85133333Y-70826190D01*
X85085714Y-70778571D01*
X84990476Y-70730952D01*
X84942857Y-70730952D01*
X84847619Y-70778571D01*
X84800000Y-70826190D01*
X84752380Y-70921428D01*
X84752380Y-71111904D01*
X84800000Y-71207142D01*
X84847619Y-71254761D01*
X84942857Y-71302380D01*
X84990476Y-71302380D01*
X85085714Y-71254761D01*
X85133333Y-71207142D01*
X85180952Y-71111904D01*
X85180952Y-70921428D01*
X85228571Y-70826190D01*
X85276190Y-70778571D01*
X85371428Y-70730952D01*
X85561904Y-70730952D01*
X85657142Y-70778571D01*
X85704761Y-70826190D01*
X85752380Y-70921428D01*
X85752380Y-71111904D01*
X85704761Y-71207142D01*
X85657142Y-71254761D01*
X85561904Y-71302380D01*
X85371428Y-71302380D01*
X85276190Y-71254761D01*
X85228571Y-71207142D01*
X85180952Y-71111904D01*
X85752380Y-71730952D02*
X84752380Y-71730952D01*
X84752380Y-72111904D01*
X84800000Y-72207142D01*
X84847619Y-72254761D01*
X84942857Y-72302380D01*
X85085714Y-72302380D01*
X85180952Y-72254761D01*
X85228571Y-72207142D01*
X85276190Y-72111904D01*
X85276190Y-71730952D01*
X85752380Y-73254761D02*
X85752380Y-72683333D01*
X85752380Y-72969047D02*
X84752380Y-72969047D01*
X84895238Y-72873809D01*
X84990476Y-72778571D01*
X85038095Y-72683333D01*
%TD*%
M02*
