%TF.GenerationSoftware,KiCad,Pcbnew,5.99.0+really5.1.10+dfsg1-1*%
%TF.CreationDate,2022-04-08T20:52:09+02:00*%
%TF.ProjectId,board,626f6172-642e-46b6-9963-61645f706362,rev?*%
%TF.SameCoordinates,Original*%
%TF.FileFunction,Soldermask,Bot*%
%TF.FilePolarity,Negative*%
%FSLAX46Y46*%
G04 Gerber Fmt 4.6, Leading zero omitted, Abs format (unit mm)*
G04 Created by KiCad (PCBNEW 5.99.0+really5.1.10+dfsg1-1) date 2022-04-08 20:52:09*
%MOMM*%
%LPD*%
G01*
G04 APERTURE LIST*
%ADD10C,1.524000*%
%ADD11C,1.600000*%
%ADD12R,1.600000X1.600000*%
%ADD13C,3.000000*%
%ADD14R,3.000000X3.000000*%
%ADD15O,2.000000X2.000000*%
%ADD16R,2.000000X2.000000*%
%ADD17O,1.905000X2.000000*%
%ADD18R,1.905000X2.000000*%
%ADD19C,1.700000*%
%ADD20C,2.000000*%
%ADD21O,1.400000X1.400000*%
%ADD22C,1.400000*%
%ADD23C,1.800000*%
%ADD24R,1.800000X1.800000*%
%ADD25O,1.600000X1.600000*%
G04 APERTURE END LIST*
D10*
%TO.C,AT_OPENSW_Q1*%
X165100000Y-66675000D03*
X162560000Y-66675000D03*
X160020000Y-66675000D03*
%TD*%
%TO.C,AT_CLOSESW_Q1*%
X147955000Y-66675000D03*
X145415000Y-66675000D03*
X142875000Y-66675000D03*
%TD*%
D11*
%TO.C,AT_XTAL_C2*%
X103505000Y-58380000D03*
D12*
X103505000Y-55880000D03*
%TD*%
D11*
%TO.C,AT_XTAL_C1*%
X116205000Y-55880000D03*
D12*
X116205000Y-53380000D03*
%TD*%
D13*
%TO.C,AT_OPEN_LIMIT1*%
X138430000Y-45085000D03*
D14*
X143510000Y-45085000D03*
%TD*%
D13*
%TO.C,AT_OPEN1*%
X99695000Y-45085000D03*
D14*
X104775000Y-45085000D03*
%TD*%
D13*
%TO.C,MV_SCREW1*%
X43815000Y-45085000D03*
D14*
X48895000Y-45085000D03*
%TD*%
D15*
%TO.C,MV_5V_D1*%
X45720000Y-53340000D03*
D16*
X50800000Y-53340000D03*
%TD*%
D11*
%TO.C,MV_5V_C1*%
X59690000Y-52150000D03*
D12*
X59690000Y-57150000D03*
%TD*%
D17*
%TO.C,MV_5V_7805*%
X62230000Y-45085000D03*
X59690000Y-45085000D03*
D18*
X57150000Y-45085000D03*
%TD*%
D15*
%TO.C,MV_12V_D1*%
X45720000Y-60960000D03*
D16*
X50800000Y-60960000D03*
%TD*%
D17*
%TO.C,MV_12V_7812*%
X62230000Y-66675000D03*
X59690000Y-66675000D03*
D18*
X57150000Y-66675000D03*
%TD*%
D19*
%TO.C,AT_XTAL1*%
X112950000Y-59690000D03*
X107950000Y-59690000D03*
%TD*%
D11*
%TO.C,AT_V_C1*%
X73105000Y-63500000D03*
D12*
X78105000Y-63500000D03*
%TD*%
D13*
%TO.C,AT_UART_SCREW1*%
X92710000Y-45085000D03*
D14*
X87630000Y-45085000D03*
%TD*%
D13*
%TO.C,AT_STOP1*%
X123825000Y-45085000D03*
D14*
X128905000Y-45085000D03*
%TD*%
D10*
%TO.C,AT_RF1*%
X184785000Y-62865000D03*
X184785000Y-60325000D03*
X184785000Y-57785000D03*
X184785000Y-55245000D03*
%TD*%
D20*
%TO.C,AT_RES_SW1*%
X78255000Y-43180000D03*
X78255000Y-47680000D03*
X71755000Y-43180000D03*
X71755000Y-47680000D03*
%TD*%
D21*
%TO.C,AT_RES_R1*%
X78105000Y-53340000D03*
D22*
X73025000Y-53340000D03*
%TD*%
D21*
%TO.C,AT_R1*%
X74930000Y-70485000D03*
D22*
X74930000Y-73025000D03*
%TD*%
D13*
%TO.C,AT_OPENSW_SCREW1*%
X165175000Y-75615000D03*
D14*
X160095000Y-75615000D03*
%TD*%
D21*
%TO.C,AT_OPENSW_R1*%
X160020000Y-59055000D03*
D22*
X165100000Y-59055000D03*
%TD*%
D13*
%TO.C,AT_OBST_SCREW1*%
X189230000Y-45085000D03*
X184150000Y-45085000D03*
D14*
X179070000Y-45085000D03*
%TD*%
D23*
%TO.C,AT_LED1*%
X69215000Y-73025000D03*
D24*
X69215000Y-70485000D03*
%TD*%
D13*
%TO.C,AT_INDI_SCREW1*%
X162560000Y-45085000D03*
D14*
X167640000Y-45085000D03*
%TD*%
D13*
%TO.C,AT_CLOSESW_SCREW1*%
X147955000Y-75565000D03*
D14*
X142875000Y-75565000D03*
%TD*%
D21*
%TO.C,AT_CLOSESW_R1*%
X142875000Y-59055000D03*
D22*
X147955000Y-59055000D03*
%TD*%
D13*
%TO.C,AT_CLOSE_LIMIT1*%
X150495000Y-45085000D03*
D14*
X155575000Y-45085000D03*
%TD*%
D13*
%TO.C,AT_CLOSE1*%
X111760000Y-45085000D03*
D14*
X116840000Y-45085000D03*
%TD*%
D25*
%TO.C,AT_328P1*%
X87630000Y-73660000D03*
X120650000Y-66040000D03*
X90170000Y-73660000D03*
X118110000Y-66040000D03*
X92710000Y-73660000D03*
X115570000Y-66040000D03*
X95250000Y-73660000D03*
X113030000Y-66040000D03*
X97790000Y-73660000D03*
X110490000Y-66040000D03*
X100330000Y-73660000D03*
X107950000Y-66040000D03*
X102870000Y-73660000D03*
X105410000Y-66040000D03*
X105410000Y-73660000D03*
X102870000Y-66040000D03*
X107950000Y-73660000D03*
X100330000Y-66040000D03*
X110490000Y-73660000D03*
X97790000Y-66040000D03*
X113030000Y-73660000D03*
X95250000Y-66040000D03*
X115570000Y-73660000D03*
X92710000Y-66040000D03*
X118110000Y-73660000D03*
X90170000Y-66040000D03*
X120650000Y-73660000D03*
D12*
X87630000Y-66040000D03*
%TD*%
M02*
